<svg id="svg" version="1.1" xmlns="http://www.w3.org/2000/svg" xmlns:xlink="http://www.w3.org/1999/xlink" width="400" height="400" viewBox="0, 0, 400,400"><g id="svgg"><path id="path0" d="M283.200 59.979 C 282.210 60.157,280.771 60.505,280.003 60.752 C 279.234 60.998,277.969 61.200,277.192 61.200 C 276.414 61.200,275.418 61.452,274.977 61.761 C 274.537 62.069,273.377 62.537,272.400 62.800 C 271.423 63.063,270.263 63.531,269.823 63.839 C 269.382 64.148,268.711 64.400,268.331 64.400 C 267.951 64.400,267.496 64.646,267.320 64.946 C 267.144 65.246,266.460 65.788,265.800 66.151 C 260.489 69.069,252.075 78.338,250.142 83.400 C 249.890 84.060,249.286 85.590,248.799 86.800 C 246.480 92.562,245.374 101.402,246.410 105.893 C 246.625 106.824,246.976 108.819,247.190 110.326 C 247.403 111.833,247.852 113.592,248.187 114.233 C 248.521 114.875,248.796 115.642,248.798 115.938 C 248.799 116.234,249.064 116.954,249.387 117.538 C 249.711 118.122,250.255 119.230,250.598 120.000 C 251.423 121.852,252.126 123.034,252.936 123.929 C 253.301 124.333,253.602 124.829,253.605 125.031 C 253.608 125.234,254.283 126.138,255.105 127.039 C 255.927 127.940,257.145 129.290,257.810 130.039 C 259.560 132.006,262.779 134.745,264.400 135.645 C 265.170 136.073,266.340 136.775,267.000 137.205 C 268.803 138.380,272.443 140.024,273.800 140.275 C 274.460 140.397,275.409 140.752,275.908 141.063 C 278.314 142.562,296.854 142.649,298.636 141.170 C 298.951 140.909,300.026 140.542,301.024 140.356 C 302.023 140.169,303.114 139.743,303.449 139.408 C 303.783 139.074,304.331 138.800,304.665 138.800 C 305.000 138.800,305.731 138.440,306.291 138.000 C 306.850 137.560,307.561 137.200,307.870 137.200 C 310.924 137.200,320.963 126.738,324.183 120.200 C 324.834 118.880,325.507 117.700,325.680 117.578 C 325.853 117.456,326.153 116.513,326.345 115.482 C 326.538 114.451,326.879 113.381,327.103 113.104 C 327.610 112.476,328.418 107.267,328.681 102.922 C 328.898 99.351,327.870 90.902,327.011 89.200 C 326.734 88.650,326.388 87.543,326.243 86.740 C 326.098 85.937,325.725 85.070,325.415 84.813 C 325.105 84.555,324.736 83.819,324.595 83.177 C 324.454 82.535,324.170 81.905,323.963 81.777 C 323.757 81.650,323.316 80.973,322.983 80.273 C 321.583 77.325,321.185 76.830,316.117 71.718 C 313.872 69.453,311.814 67.600,311.543 67.600 C 311.273 67.600,310.680 67.254,310.226 66.832 C 309.190 65.868,304.200 63.218,302.600 62.781 C 301.940 62.601,300.590 62.184,299.600 61.854 C 294.225 60.063,287.193 59.258,283.200 59.979 M83.299 208.697 L 83.400 317.000 185.758 317.101 C 261.089 317.175,288.259 317.083,288.658 316.752 C 289.406 316.131,289.466 277.626,288.720 276.880 C 288.350 276.510,270.318 276.399,210.020 276.394 C 147.760 276.389,131.596 276.285,130.800 275.882 L 129.800 275.376 129.600 187.988 L 129.400 100.600 106.299 100.497 L 83.199 100.394 83.299 208.697 " stroke="none" fill="#fafafa" fill-rule="evenodd"></path><path id="path1" d="M282.400 59.638 C 278.041 60.195,271.067 62.337,268.400 63.939 C 267.630 64.401,266.370 65.132,265.600 65.562 C 260.649 68.329,250.000 79.834,250.000 82.417 C 250.000 82.629,249.640 83.475,249.200 84.296 C 248.760 85.116,248.400 86.066,248.400 86.405 C 248.400 86.744,248.149 87.380,247.843 87.817 C 245.168 91.637,245.120 108.083,247.765 114.800 C 249.413 118.987,250.675 121.599,251.867 123.296 C 252.600 124.338,253.200 125.309,253.200 125.451 C 253.200 125.594,253.875 126.460,254.700 127.377 C 255.525 128.293,256.667 129.573,257.238 130.222 C 276.973 152.631,316.866 144.255,326.875 115.600 C 330.407 105.488,329.798 89.259,325.702 84.323 C 325.461 84.033,325.142 83.309,324.993 82.714 C 324.844 82.119,324.469 81.423,324.161 81.167 C 323.852 80.911,323.600 80.479,323.600 80.207 C 323.600 79.934,322.835 78.668,321.900 77.392 C 312.373 64.397,297.491 57.708,282.400 59.638 M295.000 60.590 C 296.540 60.955,298.610 61.524,299.600 61.854 C 300.590 62.184,301.940 62.601,302.600 62.781 C 304.200 63.218,309.190 65.868,310.226 66.832 C 310.680 67.254,311.273 67.600,311.543 67.600 C 311.814 67.600,313.872 69.453,316.117 71.718 C 321.185 76.830,321.583 77.325,322.983 80.273 C 323.316 80.973,323.757 81.650,323.963 81.777 C 324.170 81.905,324.454 82.535,324.595 83.177 C 324.736 83.819,325.105 84.555,325.415 84.813 C 325.725 85.070,326.098 85.937,326.243 86.740 C 326.388 87.543,326.734 88.650,327.011 89.200 C 327.870 90.902,328.898 99.351,328.681 102.922 C 328.418 107.267,327.610 112.476,327.103 113.104 C 326.879 113.381,326.538 114.451,326.345 115.482 C 326.153 116.513,325.853 117.456,325.680 117.578 C 325.507 117.700,324.834 118.880,324.183 120.200 C 320.963 126.738,310.924 137.200,307.870 137.200 C 307.561 137.200,306.850 137.560,306.291 138.000 C 305.731 138.440,305.000 138.800,304.665 138.800 C 304.331 138.800,303.783 139.074,303.449 139.408 C 303.114 139.743,302.023 140.169,301.024 140.356 C 300.026 140.542,298.951 140.909,298.636 141.170 C 296.854 142.649,278.314 142.562,275.908 141.063 C 275.409 140.752,274.460 140.397,273.800 140.275 C 272.443 140.024,268.803 138.380,267.000 137.205 C 266.340 136.775,265.170 136.073,264.400 135.645 C 262.779 134.745,259.560 132.006,257.810 130.039 C 257.145 129.290,255.927 127.940,255.105 127.039 C 254.283 126.138,253.608 125.234,253.605 125.031 C 253.602 124.829,253.301 124.333,252.936 123.929 C 252.126 123.034,251.423 121.852,250.598 120.000 C 250.255 119.230,249.711 118.122,249.387 117.538 C 249.064 116.954,248.799 116.234,248.798 115.938 C 248.796 115.642,248.521 114.875,248.187 114.233 C 247.852 113.592,247.403 111.833,247.190 110.326 C 246.976 108.819,246.625 106.824,246.410 105.893 C 245.374 101.402,246.480 92.562,248.799 86.800 C 249.286 85.590,249.890 84.060,250.142 83.400 C 252.075 78.338,260.489 69.069,265.800 66.151 C 266.460 65.788,267.144 65.246,267.320 64.946 C 267.496 64.646,267.951 64.400,268.331 64.400 C 268.711 64.400,269.382 64.148,269.823 63.839 C 270.263 63.531,271.423 63.063,272.400 62.800 C 273.377 62.537,274.537 62.069,274.977 61.761 C 275.418 61.452,276.414 61.200,277.192 61.200 C 277.969 61.200,279.234 60.998,280.003 60.752 C 283.948 59.486,290.067 59.420,295.000 60.590 M83.280 100.080 C 82.581 100.779,82.581 316.821,83.280 317.520 C 83.651 317.891,107.071 318.000,186.257 318.000 L 288.755 318.000 289.377 317.111 C 290.318 315.768,290.318 277.832,289.377 276.489 L 288.755 275.600 210.403 275.600 C 160.463 275.600,131.680 275.459,131.026 275.210 L 130.000 274.820 130.000 187.690 C 130.000 120.456,129.890 100.450,129.520 100.080 C 128.827 99.387,83.973 99.387,83.280 100.080 M129.600 187.988 L 129.800 275.376 130.800 275.882 C 131.596 276.285,147.760 276.389,210.020 276.394 C 270.318 276.399,288.350 276.510,288.720 276.880 C 289.466 277.626,289.406 316.131,288.658 316.752 C 288.259 317.083,261.089 317.175,185.758 317.101 L 83.400 317.000 83.299 208.697 L 83.199 100.394 106.299 100.497 L 129.400 100.600 129.600 187.988 " stroke="none" fill="#848484" fill-rule="evenodd"></path><path id="path2" d="M36.800 0.400 C 36.800 0.622,35.733 0.800,34.400 0.800 C 32.267 0.800,32.000 0.889,32.000 1.600 C 32.000 2.301,31.733 2.400,29.847 2.400 C 28.030 2.400,27.661 2.525,27.484 3.200 C 27.324 3.813,26.938 4.000,25.837 4.000 C 24.667 4.000,24.400 4.148,24.400 4.800 C 24.400 5.333,24.133 5.600,23.600 5.600 C 23.067 5.600,22.800 5.867,22.800 6.400 C 22.800 7.067,22.533 7.200,21.200 7.200 C 19.867 7.200,19.600 7.333,19.600 8.000 C 19.600 8.533,19.333 8.800,18.800 8.800 C 18.356 8.800,18.000 9.067,18.000 9.400 C 18.000 9.733,17.644 10.000,17.200 10.000 C 16.667 10.000,16.400 10.267,16.400 10.800 C 16.400 11.333,16.133 11.600,15.600 11.600 C 15.067 11.600,14.800 11.867,14.800 12.400 C 14.800 12.933,14.533 13.200,14.000 13.200 C 13.467 13.200,13.200 13.467,13.200 14.000 C 13.200 14.533,12.933 14.800,12.400 14.800 C 11.883 14.800,11.600 15.067,11.600 15.553 C 11.600 15.970,11.243 16.400,10.800 16.516 C 10.360 16.631,10.000 17.012,10.000 17.363 C 10.000 17.713,9.730 18.000,9.400 18.000 C 9.067 18.000,8.800 18.356,8.800 18.800 C 8.800 19.333,8.533 19.600,8.000 19.600 C 7.333 19.600,7.200 19.867,7.200 21.200 C 7.200 22.533,7.067 22.800,6.400 22.800 C 5.867 22.800,5.600 23.067,5.600 23.600 C 5.600 24.133,5.333 24.400,4.800 24.400 C 4.158 24.400,4.000 24.667,4.000 25.753 C 4.000 26.770,3.801 27.159,3.200 27.316 C 2.520 27.494,2.400 27.862,2.400 29.763 C 2.400 31.733,2.305 32.000,1.600 32.000 C 0.889 32.000,0.800 32.267,0.800 34.400 C 0.800 35.733,0.622 36.800,0.400 36.800 C 0.134 36.800,0.000 91.467,0.000 200.000 C 0.000 308.533,0.134 363.200,0.400 363.200 C 0.622 363.200,0.800 364.267,0.800 365.600 C 0.800 367.733,0.889 368.000,1.600 368.000 C 2.301 368.000,2.400 368.267,2.400 370.153 C 2.400 371.970,2.525 372.339,3.200 372.516 C 3.813 372.676,4.000 373.062,4.000 374.163 C 4.000 375.333,4.148 375.600,4.800 375.600 C 5.333 375.600,5.600 375.867,5.600 376.400 C 5.600 376.933,5.867 377.200,6.400 377.200 C 7.067 377.200,7.200 377.467,7.200 378.800 C 7.200 380.133,7.333 380.400,8.000 380.400 C 8.533 380.400,8.800 380.667,8.800 381.200 C 8.800 381.644,9.067 382.000,9.400 382.000 C 9.733 382.000,10.000 382.356,10.000 382.800 C 10.000 383.333,10.267 383.600,10.800 383.600 C 11.333 383.600,11.600 383.867,11.600 384.400 C 11.600 384.933,11.867 385.200,12.400 385.200 C 12.933 385.200,13.200 385.467,13.200 386.000 C 13.200 386.533,13.467 386.800,14.000 386.800 C 14.533 386.800,14.800 387.067,14.800 387.600 C 14.800 388.133,15.067 388.400,15.600 388.400 C 16.065 388.400,16.400 388.667,16.400 389.037 C 16.400 389.388,16.760 389.769,17.200 389.884 C 17.640 389.999,18.000 390.342,18.000 390.647 C 18.000 390.951,18.360 391.200,18.800 391.200 C 19.333 391.200,19.600 391.467,19.600 392.000 C 19.600 392.667,19.867 392.800,21.200 392.800 C 22.533 392.800,22.800 392.933,22.800 393.600 C 22.800 394.133,23.067 394.400,23.600 394.400 C 24.133 394.400,24.400 394.667,24.400 395.200 C 24.400 395.842,24.667 396.000,25.753 396.000 C 26.770 396.000,27.159 396.199,27.316 396.800 C 27.494 397.480,27.862 397.600,29.763 397.600 C 31.733 397.600,32.000 397.695,32.000 398.400 C 32.000 399.111,32.267 399.200,34.400 399.200 C 35.733 399.200,36.800 399.378,36.800 399.600 C 36.800 399.866,91.467 400.000,200.000 400.000 C 308.533 400.000,363.200 399.866,363.200 399.600 C 363.200 399.378,364.267 399.200,365.600 399.200 C 367.733 399.200,368.000 399.111,368.000 398.400 C 368.000 397.699,368.267 397.600,370.153 397.600 C 371.970 397.600,372.339 397.475,372.516 396.800 C 372.676 396.187,373.062 396.000,374.163 396.000 C 375.333 396.000,375.600 395.852,375.600 395.200 C 375.600 394.667,375.867 394.400,376.400 394.400 C 376.933 394.400,377.200 394.133,377.200 393.600 C 377.200 392.933,377.467 392.800,378.800 392.800 C 380.133 392.800,380.400 392.667,380.400 392.000 C 380.400 391.467,380.667 391.200,381.200 391.200 C 381.644 391.200,382.000 390.933,382.000 390.600 C 382.000 390.267,382.356 390.000,382.800 390.000 C 383.333 390.000,383.600 389.733,383.600 389.200 C 383.600 388.667,383.867 388.400,384.400 388.400 C 384.933 388.400,385.200 388.133,385.200 387.600 C 385.200 387.067,385.467 386.800,386.000 386.800 C 386.533 386.800,386.800 386.533,386.800 386.000 C 386.800 385.467,387.067 385.200,387.600 385.200 C 388.117 385.200,388.400 384.933,388.400 384.447 C 388.400 384.030,388.757 383.600,389.200 383.484 C 389.640 383.369,390.000 382.988,390.000 382.637 C 390.000 382.287,390.270 382.000,390.600 382.000 C 390.933 382.000,391.200 381.644,391.200 381.200 C 391.200 380.667,391.467 380.400,392.000 380.400 C 392.667 380.400,392.800 380.133,392.800 378.800 C 392.800 377.467,392.933 377.200,393.600 377.200 C 394.133 377.200,394.400 376.933,394.400 376.400 C 394.400 375.867,394.667 375.600,395.200 375.600 C 395.842 375.600,396.000 375.333,396.000 374.247 C 396.000 373.230,396.199 372.841,396.800 372.684 C 397.480 372.506,397.600 372.138,397.600 370.237 C 397.600 368.267,397.695 368.000,398.400 368.000 C 399.111 368.000,399.200 367.733,399.200 365.600 C 399.200 364.267,399.378 363.200,399.600 363.200 C 399.866 363.200,400.000 308.533,400.000 200.000 C 400.000 91.467,399.866 36.800,399.600 36.800 C 399.378 36.800,399.200 35.733,399.200 34.400 C 399.200 32.267,399.111 32.000,398.400 32.000 C 397.699 32.000,397.600 31.733,397.600 29.847 C 397.600 28.030,397.475 27.661,396.800 27.484 C 396.187 27.324,396.000 26.938,396.000 25.837 C 396.000 24.667,395.852 24.400,395.200 24.400 C 394.667 24.400,394.400 24.133,394.400 23.600 C 394.400 23.067,394.133 22.800,393.600 22.800 C 392.933 22.800,392.800 22.533,392.800 21.200 C 392.800 19.867,392.667 19.600,392.000 19.600 C 391.467 19.600,391.200 19.333,391.200 18.800 C 391.200 18.356,390.933 18.000,390.600 18.000 C 390.267 18.000,390.000 17.644,390.000 17.200 C 390.000 16.667,389.733 16.400,389.200 16.400 C 388.667 16.400,388.400 16.133,388.400 15.600 C 388.400 15.067,388.133 14.800,387.600 14.800 C 387.067 14.800,386.800 14.533,386.800 14.000 C 386.800 13.467,386.533 13.200,386.000 13.200 C 385.467 13.200,385.200 12.933,385.200 12.400 C 385.200 11.883,384.933 11.600,384.447 11.600 C 384.030 11.600,383.600 11.243,383.484 10.800 C 383.369 10.360,382.988 10.000,382.637 10.000 C 382.287 10.000,382.000 9.730,382.000 9.400 C 382.000 9.067,381.644 8.800,381.200 8.800 C 380.667 8.800,380.400 8.533,380.400 8.000 C 380.400 7.333,380.133 7.200,378.800 7.200 C 377.467 7.200,377.200 7.067,377.200 6.400 C 377.200 5.867,376.933 5.600,376.400 5.600 C 375.867 5.600,375.600 5.333,375.600 4.800 C 375.600 4.158,375.333 4.000,374.247 4.000 C 373.230 4.000,372.841 3.801,372.684 3.200 C 372.506 2.520,372.138 2.400,370.237 2.400 C 368.267 2.400,368.000 2.305,368.000 1.600 C 368.000 0.889,367.733 0.800,365.600 0.800 C 364.267 0.800,363.200 0.622,363.200 0.400 C 363.200 0.134,308.533 0.000,200.000 0.000 C 91.467 0.000,36.800 0.134,36.800 0.400 M298.448 59.700 C 298.726 60.197,299.337 60.400,300.558 60.400 C 301.768 60.400,302.490 60.637,303.000 61.200 C 303.400 61.642,304.232 62.000,304.859 62.000 C 305.560 62.000,306.184 62.305,306.493 62.800 C 306.794 63.282,307.426 63.600,308.082 63.600 C 308.762 63.600,309.333 63.901,309.600 64.400 C 309.835 64.840,310.382 65.200,310.814 65.200 C 311.246 65.200,311.600 65.384,311.600 65.609 C 311.600 65.833,312.095 66.235,312.700 66.501 C 314.260 67.188,321.935 75.001,322.239 76.212 C 322.378 76.767,322.831 77.403,323.246 77.625 C 323.661 77.847,324.000 78.218,324.000 78.451 C 324.000 78.684,324.360 79.331,324.800 79.891 C 325.240 80.450,325.600 81.170,325.600 81.491 C 325.600 81.811,325.960 82.531,326.400 83.091 C 326.840 83.650,327.200 84.474,327.200 84.922 C 327.200 85.370,327.496 86.064,327.858 86.464 C 328.220 86.865,328.608 88.139,328.719 89.296 C 328.841 90.571,329.173 91.584,329.560 91.868 C 330.529 92.576,330.519 109.551,329.549 110.657 C 329.191 111.066,328.810 112.369,328.703 113.554 C 328.573 114.978,328.285 115.832,327.854 116.074 C 327.492 116.276,327.200 116.939,327.200 117.558 C 327.200 118.173,326.840 119.002,326.400 119.400 C 325.960 119.798,325.600 120.518,325.600 121.000 C 325.600 121.482,325.240 122.202,324.800 122.600 C 324.360 122.998,324.000 123.655,324.000 124.059 C 324.000 124.463,323.640 125.018,323.200 125.293 C 322.760 125.568,322.400 126.008,322.400 126.272 C 322.400 127.094,312.918 136.400,312.081 136.400 C 311.832 136.400,311.435 136.760,311.200 137.200 C 310.965 137.640,310.416 138.000,309.982 138.000 C 309.548 138.000,308.884 138.360,308.507 138.800 C 308.130 139.240,307.362 139.600,306.800 139.600 C 306.238 139.600,305.470 139.960,305.093 140.400 C 304.716 140.840,303.939 141.200,303.367 141.200 C 302.795 141.200,301.869 141.560,301.309 142.000 C 300.582 142.572,299.686 142.800,298.166 142.800 C 296.564 142.800,295.944 142.971,295.652 143.494 C 294.922 144.797,280.799 144.742,279.487 143.430 C 279.200 143.143,277.824 142.826,276.429 142.725 C 274.676 142.598,273.741 142.334,273.402 141.871 C 273.106 141.465,272.360 141.200,271.518 141.200 C 270.632 141.200,269.860 140.908,269.400 140.400 C 269.002 139.960,268.282 139.600,267.800 139.600 C 267.318 139.600,266.598 139.240,266.200 138.800 C 265.802 138.360,265.262 138.000,265.000 138.000 C 264.738 138.000,264.198 137.640,263.800 137.200 C 263.402 136.760,262.921 136.400,262.732 136.400 C 262.258 136.400,258.251 133.102,256.789 131.508 C 254.368 128.868,253.965 128.384,252.968 126.915 C 252.409 126.092,251.824 125.324,251.668 125.209 C 251.512 125.094,251.154 124.550,250.872 124.000 C 249.685 121.678,249.035 120.578,248.587 120.130 C 248.325 119.868,247.998 118.945,247.859 118.079 C 247.720 117.213,247.336 116.278,247.004 116.003 C 246.672 115.727,246.394 114.939,246.386 114.251 C 246.379 113.563,246.025 112.280,245.600 111.400 C 244.411 108.938,244.411 93.523,245.600 91.304 C 246.040 90.484,246.400 89.283,246.400 88.637 C 246.400 87.991,246.678 87.156,247.017 86.781 C 247.357 86.406,247.742 85.402,247.874 84.550 C 248.006 83.697,248.448 82.678,248.857 82.284 C 249.266 81.891,249.600 81.244,249.600 80.846 C 249.600 80.449,249.960 79.798,250.400 79.400 C 250.840 79.002,251.200 78.532,251.200 78.356 C 251.200 76.438,262.440 65.200,264.358 65.200 C 264.533 65.200,265.002 64.840,265.400 64.400 C 265.798 63.960,266.342 63.600,266.608 63.600 C 266.874 63.600,267.550 63.240,268.109 62.800 C 268.669 62.360,269.519 62.000,270.000 62.000 C 270.481 62.000,271.331 61.640,271.891 61.200 C 272.503 60.718,273.514 60.400,274.430 60.400 C 275.268 60.400,276.072 60.207,276.217 59.972 C 277.084 58.570,297.676 58.318,298.448 59.700 M130.413 99.214 L 131.600 100.428 131.600 187.411 L 131.600 274.394 211.015 274.497 C 281.095 274.588,290.474 274.671,290.808 275.200 C 291.592 276.440,291.300 317.390,290.500 318.362 L 289.800 319.213 186.212 319.106 L 82.624 319.000 82.118 318.000 C 81.714 317.201,81.611 295.229,81.606 208.789 C 81.600 92.202,81.481 99.623,83.377 98.306 C 83.610 98.144,94.021 98.009,106.513 98.006 L 129.227 98.000 130.413 99.214 " stroke="none" fill="#040404" fill-rule="evenodd"></path><path id="path3" d="M277.341 59.187 C 276.868 59.383,276.363 59.737,276.217 59.972 C 276.072 60.207,275.268 60.400,274.430 60.400 C 273.514 60.400,272.503 60.718,271.891 61.200 C 271.331 61.640,270.481 62.000,270.000 62.000 C 269.519 62.000,268.669 62.360,268.109 62.800 C 267.550 63.240,266.874 63.600,266.608 63.600 C 266.342 63.600,265.798 63.960,265.400 64.400 C 265.002 64.840,264.533 65.200,264.358 65.200 C 262.440 65.200,251.200 76.438,251.200 78.356 C 251.200 78.532,250.840 79.002,250.400 79.400 C 249.960 79.798,249.600 80.449,249.600 80.846 C 249.600 81.244,249.266 81.891,248.857 82.284 C 248.448 82.678,248.006 83.697,247.874 84.550 C 247.742 85.402,247.357 86.406,247.017 86.781 C 246.678 87.156,246.400 87.991,246.400 88.637 C 246.400 89.283,246.040 90.484,245.600 91.304 C 244.411 93.523,244.411 108.938,245.600 111.400 C 246.025 112.280,246.379 113.563,246.386 114.251 C 246.394 114.939,246.672 115.727,247.004 116.003 C 247.336 116.278,247.720 117.213,247.859 118.079 C 247.998 118.945,248.325 119.868,248.587 120.130 C 249.035 120.578,249.685 121.678,250.872 124.000 C 251.154 124.550,251.512 125.094,251.668 125.209 C 251.824 125.324,252.409 126.092,252.968 126.915 C 253.965 128.384,254.368 128.868,256.789 131.508 C 258.251 133.102,262.258 136.400,262.732 136.400 C 262.921 136.400,263.402 136.760,263.800 137.200 C 264.198 137.640,264.738 138.000,265.000 138.000 C 265.262 138.000,265.802 138.360,266.200 138.800 C 266.598 139.240,267.318 139.600,267.800 139.600 C 268.282 139.600,269.002 139.960,269.400 140.400 C 269.860 140.908,270.632 141.200,271.518 141.200 C 272.360 141.200,273.106 141.465,273.402 141.871 C 273.741 142.334,274.676 142.598,276.429 142.725 C 277.824 142.826,279.200 143.143,279.487 143.430 C 280.799 144.742,294.922 144.797,295.652 143.494 C 295.944 142.971,296.564 142.800,298.166 142.800 C 299.686 142.800,300.582 142.572,301.309 142.000 C 301.869 141.560,302.795 141.200,303.367 141.200 C 303.939 141.200,304.716 140.840,305.093 140.400 C 305.470 139.960,306.238 139.600,306.800 139.600 C 307.362 139.600,308.130 139.240,308.507 138.800 C 308.884 138.360,309.548 138.000,309.982 138.000 C 310.416 138.000,310.965 137.640,311.200 137.200 C 311.435 136.760,311.832 136.400,312.081 136.400 C 312.918 136.400,322.400 127.094,322.400 126.272 C 322.400 126.008,322.760 125.568,323.200 125.293 C 323.640 125.018,324.000 124.463,324.000 124.059 C 324.000 123.655,324.360 122.998,324.800 122.600 C 325.240 122.202,325.600 121.482,325.600 121.000 C 325.600 120.518,325.960 119.798,326.400 119.400 C 326.840 119.002,327.200 118.173,327.200 117.558 C 327.200 116.939,327.492 116.276,327.854 116.074 C 328.285 115.832,328.573 114.978,328.703 113.554 C 328.810 112.369,329.191 111.066,329.549 110.657 C 330.519 109.551,330.529 92.576,329.560 91.868 C 329.173 91.584,328.841 90.571,328.719 89.296 C 328.608 88.139,328.220 86.865,327.858 86.464 C 327.496 86.064,327.200 85.370,327.200 84.922 C 327.200 84.474,326.840 83.650,326.400 83.091 C 325.960 82.531,325.600 81.811,325.600 81.491 C 325.600 81.170,325.240 80.450,324.800 79.891 C 324.360 79.331,324.000 78.684,324.000 78.451 C 324.000 78.218,323.661 77.847,323.246 77.625 C 322.831 77.403,322.378 76.767,322.239 76.212 C 321.935 75.001,314.260 67.188,312.700 66.501 C 312.095 66.235,311.600 65.833,311.600 65.609 C 311.600 65.384,311.246 65.200,310.814 65.200 C 310.382 65.200,309.835 64.840,309.600 64.400 C 309.333 63.901,308.762 63.600,308.082 63.600 C 307.426 63.600,306.794 63.282,306.493 62.800 C 306.184 62.305,305.560 62.000,304.859 62.000 C 304.232 62.000,303.400 61.642,303.000 61.200 C 302.490 60.637,301.768 60.400,300.558 60.400 C 299.337 60.400,298.726 60.197,298.448 59.700 C 298.009 58.913,279.107 58.454,277.341 59.187 M296.800 60.000 C 298.177 60.440,299.492 60.800,299.721 60.800 C 301.180 60.800,309.501 64.882,312.200 66.922 C 314.610 68.743,320.800 74.912,320.800 75.492 C 320.800 75.771,320.950 76.000,321.133 76.000 C 321.540 76.000,324.000 79.738,324.000 80.356 C 324.000 80.600,324.166 80.800,324.369 80.800 C 324.572 80.800,324.959 81.470,325.229 82.289 C 325.500 83.108,325.964 84.021,326.260 84.318 C 326.557 84.614,326.800 85.254,326.800 85.740 C 326.800 86.225,327.055 86.986,327.367 87.431 C 327.679 87.877,328.057 88.952,328.208 89.820 C 328.359 90.689,328.766 92.390,329.113 93.600 C 330.557 98.636,329.964 107.517,327.750 114.000 C 327.412 114.990,327.033 116.250,326.908 116.800 C 326.783 117.350,326.348 118.229,325.941 118.754 C 325.533 119.279,325.200 120.022,325.200 120.405 C 325.200 120.788,324.937 121.320,324.615 121.587 C 324.294 121.854,323.916 122.435,323.775 122.877 C 322.939 125.511,315.210 133.784,310.952 136.603 C 309.004 137.891,303.132 140.799,302.447 140.814 C 302.091 140.821,301.080 141.175,300.200 141.600 C 299.320 142.025,298.134 142.379,297.564 142.386 C 296.994 142.394,295.644 142.668,294.564 142.996 C 292.301 143.682,282.793 143.838,281.616 143.208 C 281.213 142.993,279.830 142.699,278.542 142.556 C 277.254 142.412,275.445 141.959,274.522 141.547 C 273.599 141.136,272.573 140.800,272.241 140.800 C 270.934 140.800,262.986 136.141,260.600 133.976 C 259.232 132.734,255.521 129.030,255.013 128.400 C 252.228 124.942,248.400 118.611,248.400 117.461 C 248.400 117.201,248.066 116.361,247.657 115.594 C 247.248 114.827,246.793 113.390,246.646 112.400 C 246.499 111.410,246.121 109.880,245.806 109.000 C 244.381 105.009,245.386 91.908,247.428 87.868 C 247.742 87.245,248.005 86.525,248.011 86.268 C 248.042 84.976,251.213 79.153,253.793 75.647 C 256.547 71.906,266.539 63.600,268.285 63.600 C 268.514 63.600,268.926 63.330,269.200 63.000 C 269.474 62.670,270.081 62.399,270.549 62.398 C 271.017 62.396,271.940 62.110,272.600 61.762 C 277.374 59.244,291.266 58.232,296.800 60.000 M83.377 98.306 C 81.481 99.623,81.600 92.202,81.606 208.789 C 81.611 295.229,81.714 317.201,82.118 318.000 L 82.624 319.000 186.212 319.106 L 289.800 319.213 290.500 318.362 C 291.300 317.390,291.592 276.440,290.808 275.200 C 290.474 274.671,281.095 274.588,211.015 274.497 L 131.600 274.394 131.600 187.411 L 131.600 100.428 130.413 99.214 L 129.227 98.000 106.513 98.006 C 94.021 98.009,83.610 98.144,83.377 98.306 M129.669 99.862 C 130.373 100.499,130.400 103.746,130.400 187.472 L 130.400 274.420 131.426 274.810 C 132.080 275.059,160.861 275.200,210.797 275.200 C 281.487 275.200,289.204 275.261,289.771 275.829 C 290.719 276.776,290.725 316.159,289.777 317.511 L 289.155 318.400 186.191 318.400 C 84.804 318.400,83.222 318.388,82.814 317.626 C 82.044 316.188,82.256 100.601,83.029 99.829 C 84.012 98.845,128.580 98.877,129.669 99.862 " stroke="none" fill="#242424" fill-rule="evenodd"></path><path id="path4" d="M278.200 60.000 C 276.880 60.404,276.071 60.750,276.403 60.767 C 276.734 60.785,277.634 60.610,278.403 60.378 C 279.171 60.145,280.970 59.809,282.400 59.630 L 285.000 59.305 282.800 59.285 C 281.590 59.274,279.520 59.596,278.200 60.000 M292.600 59.621 C 295.356 59.964,300.698 61.303,301.919 61.957 C 302.375 62.201,302.984 62.396,303.274 62.391 C 303.563 62.386,303.015 62.026,302.056 61.591 C 301.097 61.156,300.086 60.800,299.808 60.800 C 299.531 60.800,298.177 60.440,296.800 60.000 C 295.423 59.560,293.374 59.227,292.248 59.261 L 290.200 59.322 292.600 59.621 M272.806 61.623 C 270.992 62.634,271.817 62.625,274.056 61.609 C 275.066 61.151,275.463 60.824,275.000 60.832 C 274.560 60.840,273.573 61.196,272.806 61.623 M269.200 63.000 C 268.926 63.330,268.514 63.600,268.285 63.600 C 266.537 63.600,256.443 71.996,253.800 75.648 C 251.931 78.230,249.990 81.324,250.143 81.477 C 250.246 81.580,251.170 80.378,252.196 78.806 C 254.569 75.171,258.172 71.192,261.554 68.472 C 264.130 66.400,265.098 65.781,269.326 63.500 C 270.678 62.771,271.084 62.400,270.532 62.400 C 270.073 62.400,269.474 62.670,269.200 63.000 M305.000 63.200 C 305.660 63.637,306.380 63.995,306.600 63.995 C 306.820 63.995,306.460 63.637,305.800 63.200 C 305.140 62.763,304.420 62.405,304.200 62.405 C 303.980 62.405,304.340 62.763,305.000 63.200 M309.238 65.500 C 310.432 66.325,312.151 67.505,313.059 68.123 C 316.064 70.168,323.600 78.807,323.600 80.207 C 323.600 80.479,323.852 80.911,324.161 81.167 C 324.469 81.423,324.843 82.120,324.992 82.716 C 325.141 83.312,325.500 84.070,325.790 84.400 C 326.080 84.730,326.405 85.360,326.512 85.800 C 326.694 86.544,326.710 86.539,326.754 85.729 C 326.779 85.249,326.557 84.614,326.260 84.318 C 325.964 84.021,325.500 83.108,325.229 82.289 C 324.959 81.470,324.572 80.800,324.369 80.800 C 324.166 80.800,324.000 80.600,324.000 80.356 C 324.000 79.738,321.540 76.000,321.133 76.000 C 320.950 76.000,320.800 75.771,320.800 75.492 C 320.800 74.353,312.512 66.847,309.077 64.875 C 306.748 63.537,306.823 63.831,309.238 65.500 M248.878 83.908 C 248.395 85.030,247.994 86.185,247.987 86.474 C 247.980 86.763,247.710 87.349,247.387 87.776 C 247.064 88.204,246.821 88.924,246.846 89.376 C 246.892 90.181,246.897 90.182,247.094 89.400 C 247.205 88.960,247.545 88.245,247.848 87.811 C 248.152 87.377,248.400 86.744,248.400 86.405 C 248.400 86.066,248.769 85.099,249.221 84.257 C 249.672 83.414,249.977 82.532,249.899 82.296 C 249.820 82.060,249.361 82.785,248.878 83.908 M327.008 87.400 C 327.177 87.840,327.562 89.010,327.865 90.000 L 328.414 91.800 328.194 90.049 C 328.073 89.086,327.688 87.916,327.338 87.449 C 326.748 86.662,326.724 86.659,327.008 87.400 M245.894 93.277 C 244.995 97.000,244.919 106.321,245.766 108.886 C 246.077 109.829,246.417 110.960,246.520 111.400 C 246.700 112.169,246.709 112.168,246.754 111.364 C 246.779 110.904,246.532 109.644,246.204 108.564 C 245.381 105.851,245.395 97.266,246.227 94.018 C 246.571 92.673,246.796 91.298,246.727 90.963 C 246.657 90.628,246.282 91.670,245.894 93.277 M328.607 93.000 C 329.756 100.124,329.754 102.986,328.594 109.800 C 328.422 110.809,328.494 110.745,329.046 109.400 C 329.974 107.141,329.979 96.205,329.053 93.600 C 328.626 92.398,328.478 92.199,328.607 93.000 M83.029 99.829 C 82.256 100.601,82.044 316.188,82.814 317.626 C 83.222 318.388,84.804 318.400,186.191 318.400 L 289.155 318.400 289.777 317.511 C 290.725 316.159,290.719 276.776,289.771 275.829 C 289.204 275.261,281.487 275.200,210.797 275.200 C 160.861 275.200,132.080 275.059,131.426 274.810 L 130.400 274.420 130.400 187.472 C 130.400 103.746,130.373 100.499,129.669 99.862 C 128.580 98.877,84.012 98.845,83.029 99.829 M129.520 100.080 C 129.890 100.450,130.000 120.456,130.000 187.690 L 130.000 274.820 131.026 275.210 C 131.680 275.459,160.463 275.600,210.403 275.600 L 288.755 275.600 289.377 276.489 C 290.318 277.832,290.318 315.768,289.377 317.111 L 288.755 318.000 186.257 318.000 C 107.071 318.000,83.651 317.891,83.280 317.520 C 82.581 316.821,82.581 100.779,83.280 100.080 C 83.973 99.387,128.827 99.387,129.520 100.080 M328.046 111.920 C 328.021 112.426,327.719 113.383,327.376 114.047 C 327.032 114.711,326.821 115.464,326.907 115.721 C 327.152 116.457,328.497 112.573,328.284 111.744 C 328.129 111.142,328.084 111.176,328.046 111.920 M246.818 113.101 C 246.808 113.597,247.179 114.677,247.641 115.501 C 248.529 117.082,248.457 116.462,247.444 113.800 C 247.005 112.647,246.830 112.452,246.818 113.101 M326.031 117.659 C 325.718 118.396,325.379 119.180,325.277 119.400 C 325.175 119.620,325.489 119.305,325.975 118.700 C 326.461 118.095,326.800 117.311,326.729 116.958 C 326.647 116.548,326.395 116.800,326.031 117.659 M248.434 117.467 C 248.363 118.433,252.673 125.860,253.073 125.460 C 253.163 125.370,252.644 124.429,251.919 123.370 C 251.193 122.311,250.120 120.444,249.534 119.222 C 248.948 118.000,248.453 117.210,248.434 117.467 M323.832 122.101 C 320.214 128.604,313.630 134.868,306.768 138.335 C 304.085 139.691,302.160 140.800,302.492 140.800 C 303.134 140.800,309.029 137.875,310.952 136.603 C 314.919 133.977,323.600 124.803,323.600 123.236 C 323.600 123.056,323.974 122.432,324.432 121.850 C 324.890 121.268,325.205 120.615,325.132 120.398 C 325.059 120.181,324.475 120.947,323.832 122.101 M253.856 126.817 C 255.369 128.886,257.092 130.720,260.600 133.997 C 261.756 135.077,268.084 139.200,268.580 139.197 C 268.811 139.196,267.740 138.400,266.200 137.429 C 263.111 135.481,258.847 132.051,257.238 130.219 C 255.234 127.937,253.119 125.811,253.856 126.817 M270.200 140.000 C 270.860 140.437,271.760 140.802,272.200 140.811 C 272.640 140.820,273.720 141.175,274.600 141.600 C 275.480 142.025,276.740 142.358,277.400 142.340 C 278.588 142.308,278.586 142.305,277.200 141.989 C 275.390 141.577,272.092 140.429,270.738 139.740 C 269.156 138.935,268.830 139.093,270.200 140.000 M299.800 141.290 C 299.360 141.546,298.370 141.880,297.600 142.032 C 296.237 142.301,296.232 142.309,297.400 142.340 C 298.060 142.358,299.320 142.025,300.200 141.600 C 301.080 141.175,301.530 140.827,301.200 140.826 C 300.870 140.825,300.240 141.034,299.800 141.290 M280.400 142.879 C 282.800 143.648,292.033 143.741,294.269 143.018 L 296.200 142.394 294.200 142.697 C 291.676 143.079,284.096 143.090,281.200 142.715 C 279.228 142.460,279.145 142.477,280.400 142.879 " stroke="none" fill="#7c7c7c" fill-rule="evenodd"></path></g></svg>