<svg id="svg" version="1.1" xmlns="http://www.w3.org/2000/svg" xmlns:xlink="http://www.w3.org/1999/xlink" width="400" height="398.941798941799" viewBox="0, 0, 400,398.941798941799"><g id="svgg"><path id="path0" d="M366.824 251.912 C 366.476 252.107,364.502 252.653,362.437 253.127 C 360.372 253.600,357.964 254.156,357.086 254.361 C 356.208 254.566,354.770 254.881,353.892 255.060 C 353.014 255.240,350.589 255.790,348.503 256.284 C 342.565 257.689,341.625 257.905,339.920 258.261 C 339.042 258.444,336.942 258.963,335.253 259.414 C 333.565 259.865,331.319 260.413,330.263 260.631 C 329.207 260.850,326.367 261.495,323.952 262.065 C 321.537 262.635,318.393 263.358,316.966 263.673 C 315.539 263.987,312.395 264.710,309.980 265.279 C 307.565 265.849,304.870 266.481,303.992 266.685 C 303.114 266.889,300.868 267.431,299.002 267.889 C 297.136 268.347,294.890 268.878,294.012 269.069 C 292.340 269.434,291.609 269.603,285.429 271.051 C 283.343 271.540,280.918 272.091,280.040 272.275 C 278.330 272.635,277.360 272.858,271.457 274.255 C 269.371 274.748,267.322 275.138,266.902 275.121 C 266.483 275.104,265.765 275.299,265.306 275.554 C 264.847 275.809,264.355 275.986,264.213 275.947 C 264.070 275.908,264.048 276.236,264.164 276.677 C 264.305 277.216,264.196 277.441,263.833 277.362 C 263.531 277.297,263.232 277.642,263.155 278.144 C 263.080 278.638,262.742 279.042,262.405 279.042 C 262.021 279.042,261.878 279.268,262.022 279.644 C 262.158 279.997,261.927 280.450,261.466 280.738 C 261.033 281.009,260.679 281.456,260.679 281.733 C 260.679 282.009,260.499 282.236,260.279 282.236 C 260.060 282.236,259.880 282.685,259.880 283.234 C 259.880 283.855,259.654 284.232,259.281 284.232 C 258.943 284.232,258.683 284.589,258.683 285.053 C 258.683 285.506,258.522 285.776,258.326 285.655 C 258.130 285.534,257.857 285.883,257.720 286.430 C 257.582 286.977,257.294 287.425,257.078 287.425 C 256.863 287.425,256.687 287.695,256.687 288.024 C 256.687 288.353,256.417 288.623,256.088 288.623 C 255.715 288.623,255.489 289.000,255.489 289.621 C 255.489 290.170,255.309 290.619,255.090 290.619 C 254.870 290.619,254.691 291.068,254.691 291.617 C 254.691 292.238,254.464 292.615,254.092 292.615 C 253.762 292.615,253.493 292.884,253.493 293.214 C 253.493 293.543,253.224 293.812,252.894 293.812 C 252.522 293.812,252.295 294.189,252.295 294.810 C 252.295 295.359,252.116 295.808,251.896 295.808 C 251.677 295.808,251.497 296.078,251.497 296.407 C 251.497 296.737,251.228 297.006,250.898 297.006 C 250.533 297.006,250.299 297.378,250.299 297.961 C 250.299 298.487,250.030 299.020,249.701 299.146 C 249.371 299.273,249.102 299.754,249.102 300.216 C 249.102 301.110,248.242 302.196,247.534 302.196 C 247.298 302.196,247.106 302.735,247.106 303.393 C 247.106 304.052,246.913 304.591,246.678 304.591 C 245.916 304.591,245.110 305.705,245.110 306.758 C 245.110 307.404,244.888 307.784,244.511 307.784 C 244.138 307.784,243.912 308.161,243.912 308.782 C 243.912 309.403,243.686 309.780,243.313 309.780 C 242.984 309.780,242.715 310.050,242.715 310.379 C 242.715 310.709,242.535 310.978,242.315 310.978 C 242.096 310.978,241.916 311.427,241.916 311.976 C 241.916 312.597,241.690 312.974,241.317 312.974 C 240.988 312.974,240.719 313.244,240.719 313.573 C 240.719 313.902,240.542 314.172,240.327 314.172 C 240.112 314.172,239.823 314.621,239.685 315.170 C 239.547 315.719,239.274 316.168,239.078 316.168 C 238.883 316.168,238.723 316.617,238.723 317.166 C 238.723 317.787,238.496 318.164,238.124 318.164 C 237.794 318.164,237.525 318.433,237.525 318.762 C 237.525 319.092,237.349 319.361,237.133 319.361 C 236.918 319.361,236.629 319.810,236.491 320.359 C 236.354 320.908,236.081 321.357,235.885 321.357 C 235.689 321.357,235.529 321.627,235.529 321.956 C 235.529 322.285,235.259 322.555,234.930 322.555 C 234.558 322.555,234.331 322.932,234.331 323.553 C 234.331 324.102,234.152 324.551,233.932 324.551 C 233.713 324.551,233.533 325.000,233.533 325.549 C 233.533 326.170,233.307 326.547,232.934 326.547 C 232.605 326.547,232.335 326.816,232.335 327.146 C 232.335 327.475,232.066 327.745,231.737 327.745 C 231.364 327.745,231.138 328.122,231.138 328.743 C 231.138 329.291,230.958 329.741,230.739 329.741 C 230.519 329.741,230.339 330.010,230.339 330.339 C 230.339 330.669,230.070 330.938,229.741 330.938 C 229.368 330.938,229.142 331.315,229.142 331.936 C 229.142 332.557,228.916 332.934,228.543 332.934 C 228.166 332.934,227.944 333.314,227.944 333.961 C 227.944 335.013,227.138 336.128,226.376 336.128 C 226.141 336.128,225.948 336.552,225.948 337.070 C 225.948 337.609,225.521 338.333,224.950 338.761 C 224.401 339.174,223.952 339.898,223.952 340.371 C 223.952 340.845,223.683 341.335,223.353 341.462 C 223.024 341.588,222.754 342.146,222.754 342.702 C 222.754 343.258,222.550 343.713,222.299 343.713 C 221.628 343.713,220.786 344.978,220.771 346.008 C 220.764 346.502,220.563 346.906,220.323 346.906 C 219.697 346.906,218.392 348.579,218.377 349.401 C 218.369 349.785,218.184 350.100,217.964 350.100 C 217.745 350.100,217.565 350.549,217.565 351.098 C 217.565 351.719,217.339 352.096,216.966 352.096 C 216.637 352.096,216.367 352.346,216.367 352.652 C 216.367 352.958,216.098 353.311,215.768 353.438 C 215.439 353.564,215.170 354.032,215.170 354.478 C 215.170 354.925,214.990 355.289,214.770 355.289 C 214.551 355.289,214.371 355.559,214.371 355.888 C 214.371 356.218,214.102 356.487,213.772 356.487 C 213.400 356.487,213.174 356.864,213.174 357.485 C 213.174 358.034,212.997 358.483,212.782 358.483 C 212.567 358.483,212.278 358.932,212.140 359.481 C 212.002 360.030,211.729 360.479,211.534 360.479 C 211.338 360.479,211.178 360.749,211.178 361.078 C 211.178 361.407,210.908 361.677,210.579 361.677 C 210.206 361.677,209.980 362.054,209.980 362.675 C 209.980 363.224,209.800 363.673,209.581 363.673 C 209.361 363.673,209.182 363.942,209.182 364.271 C 209.182 364.601,208.912 364.870,208.583 364.870 C 208.210 364.870,207.984 365.247,207.984 365.868 C 207.984 366.489,207.758 366.866,207.385 366.866 C 207.013 366.866,206.786 367.243,206.786 367.864 C 206.786 368.413,206.607 368.862,206.387 368.862 C 206.168 368.862,205.988 369.132,205.988 369.461 C 205.988 369.790,205.719 370.060,205.389 370.060 C 204.907 370.060,204.790 370.681,204.790 373.253 C 204.790 376.356,204.818 376.447,205.746 376.447 C 206.271 376.447,206.804 376.717,206.931 377.046 C 207.066 377.398,207.665 377.645,208.383 377.645 C 209.102 377.645,209.701 377.398,209.836 377.046 C 210.025 376.552,211.072 376.447,215.811 376.447 C 220.652 376.447,221.557 376.353,221.557 375.848 C 221.557 375.358,222.244 375.250,225.349 375.250 C 227.611 375.250,229.142 375.088,229.142 374.850 C 229.142 374.620,230.410 374.451,232.148 374.451 C 234.452 374.451,235.208 374.311,235.385 373.852 C 235.556 373.406,236.266 373.253,238.166 373.253 C 240.169 373.253,240.719 373.125,240.719 372.655 C 240.719 372.203,241.204 372.056,242.691 372.056 C 243.776 372.056,244.774 371.876,244.910 371.657 C 245.046 371.437,245.781 371.257,246.543 371.257 C 247.407 371.257,248.016 371.032,248.159 370.659 C 248.320 370.239,248.974 370.060,250.342 370.060 C 251.812 370.060,252.295 369.912,252.295 369.461 C 252.295 369.029,252.739 368.862,253.892 368.862 C 254.770 368.862,255.489 368.683,255.489 368.463 C 255.489 368.244,256.208 368.064,257.086 368.064 C 258.239 368.064,258.683 367.898,258.683 367.465 C 258.683 367.033,259.126 366.866,260.279 366.866 C 261.433 366.866,261.876 366.700,261.876 366.267 C 261.876 365.895,262.253 365.669,262.874 365.669 C 263.423 365.669,263.872 365.489,263.872 365.269 C 263.872 365.050,264.591 364.870,265.469 364.870 C 266.622 364.870,267.066 364.704,267.066 364.271 C 267.066 363.872,267.465 363.673,268.263 363.673 C 269.062 363.673,269.461 363.473,269.461 363.074 C 269.461 362.656,269.882 362.475,270.858 362.475 C 271.627 362.475,272.255 362.295,272.255 362.076 C 272.255 361.856,272.794 361.677,273.453 361.677 C 274.251 361.677,274.651 361.477,274.651 361.078 C 274.651 360.705,275.028 360.479,275.649 360.479 C 276.198 360.479,276.647 360.299,276.647 360.080 C 276.647 359.860,277.012 359.681,277.458 359.681 C 277.904 359.681,278.372 359.411,278.498 359.082 C 278.629 358.741,279.225 358.483,279.883 358.483 C 280.643 358.483,281.038 358.279,281.038 357.884 C 281.038 357.512,281.415 357.285,282.036 357.285 C 282.585 357.285,283.034 357.106,283.034 356.886 C 283.034 356.667,283.399 356.487,283.845 356.487 C 284.291 356.487,284.759 356.218,284.886 355.888 C 285.012 355.559,285.520 355.289,286.015 355.289 C 286.509 355.289,287.251 354.840,287.664 354.291 C 288.082 353.735,288.818 353.293,289.329 353.293 C 289.833 353.293,290.348 353.024,290.474 352.695 C 290.601 352.365,291.134 352.096,291.659 352.096 C 292.242 352.096,292.615 351.862,292.615 351.497 C 292.615 351.168,292.884 350.898,293.214 350.898 C 293.543 350.898,293.812 350.719,293.812 350.499 C 293.812 350.279,294.177 350.100,294.623 350.100 C 295.069 350.100,295.538 349.830,295.664 349.501 C 295.790 349.172,296.144 348.902,296.450 348.902 C 296.756 348.902,297.006 348.633,297.006 348.303 C 297.006 347.964,297.364 347.705,297.833 347.705 C 298.717 347.705,299.800 346.841,299.800 346.136 C 299.800 345.901,300.339 345.709,300.998 345.709 C 301.657 345.709,302.196 345.516,302.196 345.281 C 302.196 344.605,303.265 343.713,304.074 343.713 C 304.828 343.713,306.188 342.425,306.188 341.712 C 306.188 341.495,306.457 341.317,306.786 341.317 C 307.116 341.317,307.385 341.138,307.385 340.918 C 307.385 340.699,307.834 340.519,308.383 340.519 C 309.004 340.519,309.381 340.293,309.381 339.920 C 309.381 339.591,309.651 339.321,309.980 339.321 C 310.309 339.321,310.579 339.052,310.579 338.723 C 310.579 338.393,310.771 338.124,311.007 338.124 C 311.559 338.124,312.575 337.108,312.575 336.555 C 312.575 336.320,312.943 336.128,313.392 336.128 C 313.842 336.128,314.626 335.679,315.135 335.130 C 315.643 334.581,316.264 334.132,316.513 334.132 C 316.762 334.132,316.966 333.893,316.966 333.600 C 316.966 333.308,317.415 332.829,317.964 332.535 C 318.513 332.241,318.962 331.762,318.962 331.469 C 318.962 331.177,319.232 330.938,319.561 330.938 C 319.890 330.938,320.160 330.699,320.160 330.407 C 320.160 330.115,320.609 329.635,321.158 329.341 C 321.707 329.048,322.156 328.568,322.156 328.276 C 322.156 327.984,322.425 327.745,322.754 327.745 C 323.084 327.745,323.353 327.552,323.353 327.317 C 323.353 327.082,323.610 326.632,323.924 326.319 C 324.237 326.005,324.686 325.749,324.922 325.749 C 325.157 325.749,325.349 325.479,325.349 325.150 C 325.349 324.820,325.619 324.551,325.948 324.551 C 326.277 324.551,326.547 324.358,326.547 324.123 C 326.547 323.888,326.804 323.439,327.117 323.125 C 327.431 322.812,327.880 322.555,328.115 322.555 C 328.350 322.555,328.543 322.285,328.543 321.956 C 328.543 321.627,328.812 321.357,329.142 321.357 C 329.471 321.357,329.741 321.165,329.741 320.930 C 329.741 320.377,330.756 319.361,331.309 319.361 C 331.544 319.361,331.737 319.092,331.737 318.762 C 331.737 318.433,332.006 318.164,332.335 318.164 C 332.665 318.164,332.934 317.984,332.934 317.764 C 332.934 317.545,333.653 316.647,334.531 315.768 C 335.409 314.890,336.128 313.902,336.128 313.573 C 336.128 313.244,336.307 312.974,336.527 312.974 C 336.747 312.974,336.926 312.705,336.926 312.375 C 336.926 312.046,337.196 311.776,337.525 311.776 C 337.854 311.776,338.124 311.507,338.124 311.178 C 338.124 310.848,338.316 310.579,338.551 310.579 C 339.187 310.579,340.120 309.528,340.120 308.811 C 340.120 308.466,340.838 307.465,341.717 306.587 C 342.595 305.709,343.313 304.631,343.313 304.192 C 343.313 303.748,343.580 303.393,343.912 303.393 C 344.242 303.393,344.511 303.124,344.511 302.794 C 344.511 302.465,344.691 302.196,344.910 302.196 C 345.130 302.196,345.309 301.747,345.309 301.198 C 345.309 300.577,345.536 300.200,345.908 300.200 C 346.238 300.200,346.507 299.930,346.507 299.601 C 346.507 299.271,346.776 299.002,347.106 299.002 C 347.478 299.002,347.705 298.625,347.705 298.004 C 347.705 297.455,347.884 297.006,348.104 297.006 C 348.323 297.006,348.503 296.737,348.503 296.407 C 348.503 296.078,348.772 295.808,349.102 295.808 C 349.474 295.808,349.701 295.431,349.701 294.810 C 349.701 294.189,349.927 293.812,350.299 293.812 C 350.629 293.812,350.898 293.543,350.898 293.214 C 350.898 292.884,351.078 292.615,351.297 292.615 C 351.517 292.615,351.697 292.166,351.697 291.617 C 351.697 290.996,351.923 290.619,352.295 290.619 C 352.668 290.619,352.894 290.242,352.894 289.621 C 352.894 289.000,353.120 288.623,353.493 288.623 C 353.822 288.623,354.092 288.353,354.092 288.024 C 354.092 287.695,354.271 287.425,354.491 287.425 C 354.711 287.425,354.890 286.995,354.890 286.470 C 354.890 285.944,355.160 285.411,355.489 285.285 C 355.818 285.158,356.088 284.684,356.088 284.232 C 356.088 283.779,356.357 283.305,356.687 283.178 C 357.016 283.052,357.285 282.519,357.285 281.993 C 357.285 281.468,357.465 281.038,357.685 281.038 C 357.904 281.038,358.084 280.589,358.084 280.040 C 358.084 279.419,358.310 279.042,358.683 279.042 C 359.048 279.042,359.281 278.670,359.281 278.087 C 359.281 277.561,359.551 277.028,359.880 276.902 C 360.210 276.775,360.479 276.217,360.479 275.661 C 360.479 275.105,360.659 274.651,360.878 274.651 C 361.098 274.651,361.277 274.202,361.277 273.653 C 361.277 273.032,361.504 272.655,361.876 272.655 C 362.306 272.655,362.475 272.216,362.475 271.101 C 362.475 270.087,362.683 269.467,363.074 269.317 C 363.403 269.190,363.673 268.722,363.673 268.276 C 363.673 267.830,363.852 267.465,364.072 267.465 C 364.291 267.465,364.471 266.747,364.471 265.868 C 364.471 264.715,364.637 264.271,365.070 264.271 C 365.469 264.271,365.669 263.872,365.669 263.074 C 365.669 262.415,365.848 261.876,366.068 261.876 C 366.287 261.876,366.467 261.242,366.467 260.467 C 366.467 259.684,366.696 258.969,366.982 258.859 C 367.265 258.751,367.540 258.086,367.594 257.383 C 367.647 256.680,367.955 255.957,368.277 255.777 C 368.599 255.597,368.860 255.234,368.856 254.970 C 368.852 254.677,368.700 254.724,368.463 255.090 C 368.231 255.450,368.074 255.499,368.070 255.213 C 368.067 254.952,368.228 254.637,368.428 254.513 C 368.628 254.389,368.743 253.845,368.683 253.303 C 368.624 252.761,368.717 252.405,368.891 252.513 C 369.064 252.620,369.304 252.550,369.423 252.357 C 369.542 252.164,369.240 252.032,368.752 252.063 C 368.264 252.094,367.772 251.993,367.660 251.839 C 367.548 251.685,367.171 251.718,366.824 251.912 M134.038 305.935 C 133.657 306.227,133.472 306.593,133.627 306.747 C 133.781 306.902,133.633 306.923,133.298 306.794 C 132.963 306.666,131.531 306.850,130.117 307.203 C 128.702 307.557,125.569 308.291,123.154 308.836 C 120.739 309.380,117.685 310.079,116.367 310.389 C 112.034 311.408,108.810 312.151,106.986 312.552 C 105.046 312.978,97.403 314.773,91.617 316.162 C 89.641 316.636,84.926 317.723,81.139 318.577 C 77.352 319.432,73.917 320.311,73.506 320.530 C 73.096 320.750,72.646 320.817,72.508 320.678 C 72.369 320.539,72.255 320.655,72.255 320.934 C 72.255 321.214,72.014 321.350,71.719 321.237 C 71.332 321.088,71.235 321.307,71.373 322.025 C 71.477 322.572,71.808 323.114,72.109 323.229 C 72.409 323.344,72.655 323.689,72.655 323.995 C 72.655 324.301,72.935 324.551,73.277 324.551 C 73.619 324.551,73.808 324.698,73.697 324.879 C 73.470 325.246,74.840 326.547,75.454 326.547 C 75.671 326.547,75.848 326.816,75.848 327.146 C 75.848 327.475,76.065 327.700,76.329 327.645 C 76.594 327.590,76.818 327.737,76.828 327.973 C 76.852 328.535,78.070 329.741,78.614 329.741 C 78.849 329.741,79.042 329.933,79.042 330.168 C 79.042 330.721,80.058 331.737,80.610 331.737 C 80.845 331.737,81.038 332.006,81.038 332.335 C 81.038 332.708,81.415 332.934,82.036 332.934 C 82.657 332.934,83.034 333.160,83.034 333.533 C 83.034 333.862,83.273 334.132,83.565 334.132 C 83.858 334.132,84.337 334.581,84.631 335.130 C 84.925 335.679,85.404 336.128,85.696 336.128 C 85.988 336.128,86.228 336.397,86.228 336.727 C 86.228 337.056,86.497 337.325,86.826 337.325 C 87.156 337.325,87.425 337.505,87.425 337.725 C 87.425 337.944,87.874 338.124,88.423 338.124 C 89.044 338.124,89.421 338.350,89.421 338.723 C 89.421 339.052,89.691 339.321,90.020 339.321 C 90.349 339.321,90.619 339.514,90.619 339.749 C 90.619 340.302,91.634 341.317,92.187 341.317 C 92.422 341.317,92.615 341.587,92.615 341.916 C 92.615 342.289,92.992 342.515,93.613 342.515 C 94.234 342.515,94.611 342.741,94.611 343.114 C 94.611 343.443,94.880 343.713,95.210 343.713 C 95.539 343.713,95.808 343.892,95.808 344.112 C 95.808 344.331,96.257 344.511,96.806 344.511 C 97.427 344.511,97.804 344.737,97.804 345.110 C 97.804 345.439,98.074 345.709,98.403 345.709 C 98.733 345.709,99.002 345.978,99.002 346.307 C 99.002 346.637,99.271 346.906,99.601 346.906 C 99.930 346.906,100.200 347.086,100.200 347.305 C 100.200 347.525,100.649 347.705,101.198 347.705 C 101.819 347.705,102.196 347.931,102.196 348.303 C 102.196 348.676,102.573 348.902,103.194 348.902 C 103.815 348.902,104.192 349.128,104.192 349.501 C 104.192 349.933,104.635 350.100,105.788 350.100 C 106.942 350.100,107.385 349.933,107.385 349.501 C 107.385 349.128,107.762 348.902,108.383 348.902 C 109.004 348.902,109.381 348.676,109.381 348.303 C 109.381 347.974,109.651 347.705,109.980 347.705 C 110.353 347.705,110.579 347.328,110.579 346.707 C 110.579 346.086,110.805 345.709,111.178 345.709 C 111.550 345.709,111.776 345.332,111.776 344.711 C 111.776 344.162,111.956 343.713,112.176 343.713 C 112.395 343.713,112.575 343.443,112.575 343.114 C 112.575 342.784,112.844 342.515,113.174 342.515 C 113.511 342.515,113.772 342.158,113.772 341.698 C 113.772 341.248,114.222 340.464,114.770 339.955 C 115.319 339.446,115.768 338.647,115.768 338.178 C 115.768 337.686,116.022 337.325,116.367 337.325 C 116.730 337.325,116.966 336.955,116.966 336.383 C 116.966 335.844,117.393 335.120,117.964 334.692 C 118.513 334.279,118.962 333.617,118.962 333.220 C 118.962 332.822,119.411 332.081,119.960 331.572 C 120.509 331.063,120.958 330.348,120.958 329.982 C 120.958 329.616,121.228 329.213,121.557 329.086 C 121.898 328.955,122.156 328.360,122.156 327.702 C 122.156 327.067,122.348 326.547,122.583 326.547 C 123.345 326.547,124.152 325.432,124.152 324.380 C 124.152 323.815,124.329 323.353,124.546 323.353 C 125.327 323.353,126.547 321.960,126.547 321.069 C 126.547 320.569,126.727 320.160,126.946 320.160 C 127.166 320.160,127.345 319.711,127.345 319.162 C 127.345 318.578,127.575 318.164,127.898 318.164 C 128.201 318.164,128.548 317.786,128.669 317.325 C 128.790 316.863,129.080 316.605,129.314 316.750 C 129.561 316.902,129.741 316.685,129.741 316.237 C 129.741 315.042,130.688 313.490,131.294 313.692 C 131.624 313.801,131.760 313.657,131.641 313.323 C 131.373 312.572,132.080 311.295,132.589 311.611 C 132.842 311.766,132.954 311.491,132.877 310.903 C 132.804 310.348,133.134 309.453,133.656 308.790 C 134.153 308.157,134.470 307.402,134.359 307.113 C 134.248 306.824,134.341 306.587,134.567 306.587 C 134.793 306.587,134.866 306.407,134.731 306.188 C 134.595 305.968,134.749 305.788,135.073 305.788 C 135.397 305.788,135.753 305.973,135.865 306.198 C 135.977 306.423,136.022 306.378,135.965 306.098 C 135.821 305.385,134.860 305.304,134.038 305.935 M66.541 317.658 C 66.248 318.153,68.577 320.222,68.878 319.735 C 69.024 319.499,68.767 319.209,68.304 319.088 C 67.842 318.968,67.465 318.631,67.465 318.340 C 67.465 317.712,66.799 317.221,66.541 317.658 " stroke="none" fill="#040ad4" fill-rule="evenodd"></path><path id="path1" d="M375.709 189.452 C 375.675 189.692,375.139 189.807,374.497 189.713 C 373.863 189.620,372.972 189.743,372.516 189.987 C 372.060 190.231,370.467 190.689,368.977 191.004 C 367.487 191.319,364.741 191.953,362.874 192.413 C 361.008 192.872,358.134 193.508,356.487 193.826 C 354.840 194.144,353.224 194.515,352.894 194.652 C 352.046 195.004,346.438 196.338,343.007 197.003 C 341.412 197.313,339.945 197.666,339.747 197.788 C 339.550 197.910,337.711 198.377,335.662 198.826 C 333.613 199.275,331.307 199.794,330.539 199.980 C 329.770 200.166,328.244 200.514,327.146 200.753 C 326.048 200.992,323.623 201.554,321.756 202.002 C 319.890 202.450,316.297 203.272,313.772 203.828 C 311.248 204.384,309.000 205.074,308.777 205.360 C 308.447 205.786,308.275 205.776,307.837 205.308 C 307.096 204.514,306.010 206.025,306.350 207.378 C 306.497 207.964,306.359 208.554,305.988 208.925 C 305.659 209.254,305.389 209.877,305.389 210.308 C 305.389 210.739,305.120 211.196,304.790 211.322 C 304.461 211.448,304.192 211.837,304.192 212.187 C 304.192 212.536,304.012 212.711,303.792 212.575 C 303.573 212.439,303.393 212.704,303.393 213.163 C 303.393 213.622,303.124 214.101,302.794 214.227 C 302.449 214.359,302.196 214.956,302.196 215.635 C 302.196 216.283,302.048 216.722,301.868 216.611 C 301.331 216.279,300.200 217.893,300.200 218.990 C 300.200 219.550,300.049 219.914,299.864 219.800 C 299.441 219.538,297.804 221.714,297.804 222.539 C 297.804 222.877,297.625 223.154,297.405 223.154 C 297.186 223.154,297.006 223.603,297.006 224.152 C 297.006 224.721,296.776 225.150,296.470 225.150 C 296.175 225.150,295.591 225.823,295.173 226.647 C 294.754 227.470,294.276 228.204,294.112 228.277 C 293.947 228.350,293.812 228.664,293.812 228.975 C 293.812 229.286,293.498 229.544,293.114 229.547 C 292.517 229.552,292.502 229.609,293.014 229.940 C 293.413 230.198,293.446 230.329,293.114 230.333 C 292.839 230.337,292.615 230.609,292.615 230.938 C 292.615 231.267,292.345 231.537,292.016 231.537 C 291.643 231.537,291.417 231.914,291.417 232.535 C 291.417 233.084,291.238 233.533,291.018 233.533 C 290.798 233.533,290.619 233.802,290.619 234.132 C 290.619 234.461,290.349 234.731,290.020 234.731 C 289.675 234.731,289.421 235.091,289.421 235.583 C 289.421 236.052,288.972 236.852,288.423 237.360 C 287.862 237.881,287.425 238.730,287.425 239.302 C 287.425 239.862,287.223 240.274,286.976 240.220 C 286.729 240.165,286.446 240.389,286.347 240.719 C 286.187 241.251,286.214 241.251,286.590 240.719 C 286.823 240.389,287.016 240.276,287.020 240.468 C 287.023 240.660,287.329 240.570,287.699 240.268 C 288.285 239.792,288.341 239.806,288.128 240.375 C 287.903 240.977,288.052 240.982,289.950 240.437 C 291.086 240.110,292.824 239.689,293.812 239.501 C 296.691 238.952,298.969 238.440,302.595 237.529 C 306.862 236.455,308.711 236.020,310.978 235.555 C 311.966 235.352,314.301 234.807,316.168 234.343 C 318.034 233.879,320.459 233.311,321.557 233.082 C 322.655 232.852,324.271 232.514,325.150 232.330 C 326.028 232.145,328.273 231.611,330.140 231.141 C 335.562 229.777,336.631 229.537,338.323 229.304 C 339.202 229.184,340.549 228.849,341.317 228.560 C 342.086 228.272,343.613 227.851,344.711 227.624 C 345.808 227.397,348.683 226.744,351.098 226.173 C 353.513 225.601,356.657 224.882,358.084 224.574 C 359.511 224.267,362.655 223.539,365.070 222.956 C 372.728 221.109,375.564 220.725,375.018 221.609 C 374.849 221.882,374.957 221.987,375.294 221.875 C 375.732 221.730,375.873 220.270,375.966 214.943 C 376.061 209.469,376.196 208.133,376.678 207.863 C 377.516 207.394,377.485 191.794,376.645 191.472 C 376.348 191.358,376.030 190.760,375.937 190.143 C 375.844 189.527,375.741 189.215,375.709 189.452 M179.819 234.696 C 179.943 234.897,179.819 235.153,179.543 235.264 C 179.241 235.386,179.319 235.478,179.741 235.497 C 180.125 235.515,180.439 235.259,180.439 234.930 C 180.439 234.601,180.249 234.331,180.016 234.331 C 179.784 234.331,179.695 234.496,179.819 234.696 M174.451 236.202 C 173.902 236.295,172.855 236.560,172.124 236.790 C 171.393 237.020,169.238 237.557,167.334 237.984 C 165.430 238.410,163.244 238.912,162.475 239.098 C 161.707 239.284,158.832 239.917,156.088 240.504 C 153.343 241.091,150.739 241.729,150.299 241.922 C 149.860 242.115,148.154 242.548,146.507 242.885 C 143.693 243.461,141.162 244.031,133.234 245.876 C 131.422 246.298,128.323 247.013,126.347 247.465 C 124.371 247.917,120.868 248.749,118.563 249.313 C 116.257 249.877,113.204 250.587,111.776 250.889 C 110.349 251.192,107.655 251.828,105.788 252.302 C 103.922 252.776,100.763 253.478,98.769 253.863 C 96.774 254.247,94.948 254.682,94.711 254.828 C 94.474 254.975,93.052 255.354,91.551 255.671 C 90.050 255.988,87.295 256.620,85.429 257.075 C 83.563 257.530,80.060 258.338,77.645 258.871 C 75.230 259.403,71.637 260.224,69.661 260.697 C 67.685 261.169,64.631 261.882,62.874 262.281 C 61.118 262.681,58.064 263.382,56.088 263.838 C 54.112 264.295,51.597 264.866,50.499 265.109 C 46.916 265.900,41.393 267.227,38.830 267.912 C 37.900 268.160,37.222 268.495,37.321 268.656 C 37.420 268.817,37.333 269.558,37.127 270.302 C 36.797 271.496,36.817 271.571,37.303 270.930 C 37.794 270.282,37.836 270.384,37.693 271.869 C 37.574 273.110,37.664 273.485,38.046 273.339 C 38.384 273.209,38.591 273.550,38.650 274.333 C 38.700 274.988,39.008 275.792,39.334 276.118 C 39.661 276.444,39.825 276.878,39.699 277.081 C 39.573 277.284,39.751 277.559,40.094 277.690 C 40.438 277.822,40.719 278.340,40.719 278.842 C 40.719 279.344,40.988 279.858,41.317 279.985 C 41.647 280.111,41.922 280.534,41.929 280.926 C 41.936 281.317,42.200 281.978,42.515 282.394 C 42.830 282.811,42.993 283.306,42.876 283.495 C 42.759 283.684,42.945 283.946,43.288 284.077 C 43.631 284.209,43.912 284.747,43.912 285.272 C 43.912 285.855,44.146 286.228,44.511 286.228 C 44.844 286.228,45.110 286.582,45.110 287.026 C 45.110 287.465,45.289 287.824,45.509 287.824 C 45.729 287.824,45.908 288.184,45.908 288.623 C 45.908 289.066,46.174 289.421,46.507 289.421 C 46.880 289.421,47.106 289.798,47.106 290.419 C 47.106 290.968,47.283 291.417,47.500 291.417 C 47.716 291.417,48.149 292.028,48.460 292.774 C 48.772 293.520,49.296 294.283,49.625 294.470 C 49.954 294.657,50.285 295.245,50.361 295.777 C 50.515 296.857,51.497 297.430,51.497 296.440 C 51.497 296.093,51.632 295.795,51.796 295.778 C 52.198 295.737,52.696 295.625,56.886 294.631 C 58.862 294.162,61.377 293.591,62.475 293.361 C 63.573 293.132,65.190 292.792,66.068 292.607 C 66.946 292.421,70.000 291.712,72.854 291.032 C 75.709 290.351,79.212 289.548,80.639 289.247 C 82.066 288.946,85.210 288.213,87.625 287.618 C 90.040 287.023,92.735 286.396,93.613 286.225 C 94.491 286.054,95.749 285.722,96.407 285.487 C 97.066 285.253,98.952 284.793,100.599 284.465 C 102.246 284.137,105.120 283.491,106.986 283.030 C 108.852 282.569,111.796 281.927,113.529 281.604 C 115.261 281.281,116.851 280.910,117.062 280.779 C 117.431 280.551,120.563 279.804,127.745 278.231 C 129.611 277.822,132.665 277.110,134.531 276.649 C 137.833 275.832,139.517 275.442,143.014 274.681 C 143.947 274.478,146.238 273.927,148.104 273.457 C 149.970 272.988,152.126 272.504,152.894 272.382 C 153.663 272.260,154.516 271.981,154.790 271.760 C 155.142 271.478,155.293 271.522,155.302 271.907 C 155.311 272.291,155.479 272.239,155.863 271.733 C 156.164 271.335,156.515 271.180,156.644 271.388 C 156.772 271.596,156.610 271.988,156.283 272.259 C 155.956 272.530,155.689 272.938,155.689 273.164 C 155.689 273.390,156.052 273.156,156.496 272.644 C 156.941 272.132,157.243 271.529,157.168 271.304 C 156.970 270.709,158.531 269.045,159.010 269.341 C 159.257 269.493,159.315 269.327,159.158 268.917 C 158.997 268.496,159.190 267.993,159.668 267.582 C 160.092 267.220,160.347 266.776,160.235 266.595 C 160.124 266.415,160.313 266.267,160.655 266.267 C 161.045 266.267,161.277 265.911,161.277 265.312 C 161.277 264.787,161.547 264.253,161.876 264.127 C 162.206 264.001,162.478 263.487,162.481 262.987 C 162.486 262.252,162.562 262.192,162.874 262.675 C 163.186 263.158,163.262 263.097,163.267 262.363 C 163.271 261.862,163.543 261.349,163.872 261.222 C 164.202 261.096,164.471 260.588,164.471 260.093 C 164.471 259.598,164.920 258.856,165.469 258.444 C 166.121 257.955,166.467 257.304,166.467 256.568 C 166.467 255.949,166.627 255.541,166.823 255.662 C 167.407 256.023,169.661 252.362,169.661 251.052 C 169.661 250.638,169.902 250.299,170.197 250.299 C 170.491 250.299,171.075 249.626,171.494 248.802 C 171.913 247.979,172.390 247.246,172.555 247.172 C 172.720 247.099,172.854 246.785,172.854 246.474 C 172.854 246.163,173.086 245.908,173.368 245.908 C 173.651 245.908,173.911 245.520,173.947 245.046 C 173.983 244.572,174.174 244.078,174.372 243.948 C 174.570 243.819,175.049 243.039,175.436 242.216 C 175.822 241.392,176.388 240.719,176.692 240.719 C 176.997 240.719,177.246 240.528,177.246 240.296 C 177.246 240.063,177.021 240.008,176.747 240.173 C 176.254 240.469,176.917 239.485,177.944 238.396 C 178.549 237.755,178.580 237.258,178.037 236.922 C 177.814 236.784,177.713 236.540,177.812 236.380 C 178.015 236.051,175.969 235.943,174.451 236.202 " stroke="none" fill="#0481d4" fill-rule="evenodd"></path><path id="path2" d="M368.236 146.951 C 368.085 147.195,368.119 147.509,368.312 147.649 C 368.993 148.144,368.796 148.737,367.936 148.779 C 367.458 148.802,367.292 148.734,367.567 148.628 C 367.843 148.522,367.962 148.262,367.831 148.050 C 367.686 147.815,367.366 147.855,367.009 148.151 C 366.687 148.418,365.311 148.871,363.951 149.158 C 362.590 149.445,360.309 149.966,358.882 150.316 C 357.455 150.666,355.569 151.106,354.691 151.295 C 353.812 151.483,352.588 151.831,351.970 152.066 C 351.352 152.302,350.298 152.495,349.628 152.495 C 348.959 152.495,347.578 152.756,346.561 153.074 C 345.543 153.392,343.992 153.823,343.114 154.031 C 342.236 154.240,340.619 154.630,339.521 154.899 C 335.303 155.931,334.269 156.153,332.335 156.438 C 331.238 156.600,329.711 156.935,328.942 157.183 C 328.174 157.430,326.377 157.926,324.950 158.283 C 323.523 158.641,321.804 159.102,321.129 159.307 C 320.455 159.513,319.353 159.681,318.680 159.681 C 318.007 159.681,316.583 159.935,315.515 160.247 C 314.447 160.558,312.405 161.111,310.978 161.476 C 309.551 161.841,307.754 162.303,306.986 162.503 C 306.218 162.703,304.691 163.040,303.593 163.251 C 302.495 163.462,300.878 163.807,300.000 164.017 C 299.122 164.227,297.146 164.698,295.609 165.063 C 294.072 165.428,292.186 165.877,291.417 166.061 C 290.649 166.245,288.610 166.681,286.887 167.031 C 285.163 167.380,283.604 167.759,283.420 167.872 C 283.237 167.985,282.312 168.242,281.364 168.443 C 280.416 168.644,278.473 169.100,277.046 169.457 C 275.619 169.813,273.553 170.264,272.455 170.459 C 271.357 170.654,269.291 171.106,267.864 171.462 C 266.437 171.819,264.641 172.252,263.872 172.423 C 263.104 172.595,261.756 172.932,260.878 173.171 C 260.000 173.410,257.934 173.891,256.287 174.239 C 254.641 174.587,252.665 175.036,251.896 175.236 C 248.193 176.203,241.948 177.649,240.519 177.871 C 239.641 178.008,238.383 178.271,237.725 178.455 C 237.066 178.640,235.359 179.086,233.932 179.448 C 232.505 179.810,230.463 180.360,229.395 180.672 C 228.327 180.983,226.993 181.238,226.430 181.238 C 225.867 181.238,224.854 181.402,224.180 181.602 C 223.506 181.802,222.056 182.184,220.958 182.449 C 219.860 182.715,218.244 183.112,217.365 183.331 C 216.487 183.551,214.960 183.775,213.972 183.830 C 211.215 183.983,210.886 184.082,211.976 184.431 C 212.933 184.738,212.938 184.752,212.076 184.791 C 211.582 184.812,211.178 185.081,211.178 185.386 C 211.178 185.692,210.890 186.053,210.537 186.188 C 210.179 186.326,209.996 186.691,210.121 187.017 C 210.244 187.337,210.145 187.723,209.901 187.873 C 209.632 188.039,209.570 187.966,209.742 187.686 C 209.899 187.433,209.849 187.226,209.631 187.226 C 209.413 187.226,209.178 187.720,209.108 188.323 C 209.034 188.966,208.767 189.377,208.464 189.315 C 208.179 189.257,207.976 189.436,208.012 189.714 C 208.151 190.770,207.964 191.218,207.385 191.218 C 207.056 191.218,206.808 191.352,206.834 191.517 C 206.962 192.328,206.743 192.834,206.365 192.601 C 206.083 192.427,205.973 193.148,206.031 194.773 C 206.080 196.111,206.269 197.206,206.453 197.206 C 206.636 197.206,206.786 197.475,206.786 197.804 C 206.786 198.134,207.056 198.403,207.385 198.403 C 207.715 198.403,207.984 198.673,207.984 199.002 C 207.984 199.531,213.487 199.601,255.113 199.601 C 284.054 199.601,302.154 199.744,302.013 199.972 C 301.887 200.176,302.381 200.559,303.110 200.823 C 303.840 201.086,304.739 201.829,305.109 202.473 C 305.496 203.147,305.970 203.528,306.227 203.369 C 306.538 203.176,306.590 203.468,306.398 204.341 C 306.140 205.518,306.720 206.189,307.075 205.123 C 307.182 204.802,307.407 204.848,307.801 205.270 C 308.266 205.767,308.449 205.784,308.777 205.360 C 309.000 205.074,311.248 204.384,313.772 203.828 C 316.297 203.272,319.890 202.450,321.756 202.002 C 323.623 201.554,326.048 200.992,327.146 200.753 C 328.244 200.514,329.770 200.166,330.539 199.980 C 331.307 199.794,333.613 199.275,335.662 198.826 C 337.711 198.377,339.550 197.910,339.747 197.788 C 339.945 197.666,341.412 197.313,343.007 197.003 C 346.438 196.338,352.046 195.004,352.894 194.652 C 353.224 194.515,354.840 194.144,356.487 193.826 C 358.134 193.508,361.008 192.872,362.874 192.413 C 364.741 191.953,367.487 191.319,368.977 191.004 C 370.467 190.689,372.060 190.231,372.516 189.987 C 372.972 189.743,373.857 189.619,374.482 189.710 C 375.212 189.818,375.695 189.677,375.833 189.317 C 376.232 188.277,376.065 178.443,375.649 178.443 C 375.414 178.443,375.250 177.042,375.250 175.037 C 375.250 172.378,375.118 171.581,374.651 171.402 C 374.188 171.224,374.052 170.454,374.052 168.021 C 374.052 165.486,373.935 164.870,373.453 164.870 C 372.984 164.870,372.854 164.325,372.854 162.355 C 372.854 160.972,372.687 159.670,372.482 159.461 C 372.277 159.252,372.018 158.273,371.908 157.285 C 371.797 156.297,371.695 155.434,371.682 155.366 C 371.668 155.298,371.477 155.353,371.257 155.489 C 370.912 155.702,370.636 154.207,370.825 153.152 C 370.859 152.964,370.678 152.560,370.424 152.253 C 370.170 151.947,370.119 151.694,370.310 151.690 C 370.502 151.687,370.389 151.514,370.060 151.306 C 369.725 151.094,369.456 150.328,369.448 149.561 C 369.440 148.809,369.217 147.932,368.952 147.613 C 368.687 147.294,368.588 146.914,368.733 146.770 C 368.877 146.625,368.886 146.507,368.753 146.507 C 368.619 146.507,368.387 146.707,368.236 146.951 M168.070 200.047 C 151.080 200.259,142.681 200.501,142.587 200.781 C 142.507 201.022,140.988 201.222,138.989 201.254 C 136.369 201.297,135.917 201.375,137.126 201.577 L 138.723 201.842 136.727 202.135 C 135.629 202.296,134.102 202.589,133.333 202.785 C 132.565 202.982,130.050 203.624,127.745 204.213 C 121.662 205.768,120.607 206.003,118.104 206.364 C 116.863 206.543,115.663 206.805,115.436 206.945 C 115.209 207.085,114.248 207.364,113.300 207.565 C 112.352 207.766,110.409 208.222,108.982 208.578 C 107.555 208.935,105.489 209.365,104.391 209.535 C 103.293 209.704,101.587 210.068,100.599 210.342 C 99.611 210.617,98.084 211.018,97.206 211.234 C 96.327 211.449,94.711 211.875,93.613 212.181 C 92.515 212.486,91.078 212.844,90.419 212.975 C 87.285 213.601,83.796 214.369,81.437 214.952 C 80.010 215.304,78.124 215.753,77.246 215.950 C 76.367 216.147,75.143 216.501,74.525 216.737 C 73.907 216.973,72.842 217.166,72.158 217.166 C 71.474 217.166,70.363 217.334,69.689 217.539 C 69.015 217.744,67.295 218.208,65.868 218.570 C 64.441 218.932,62.400 219.482,61.331 219.793 C 60.263 220.105,58.702 220.359,57.862 220.359 C 57.022 220.359,56.235 220.520,56.114 220.716 C 55.993 220.913,55.218 221.153,54.394 221.250 C 53.569 221.348,51.457 221.839,49.701 222.341 C 45.647 223.501,43.812 223.932,41.317 224.311 C 40.220 224.477,38.513 224.837,37.525 225.111 C 34.250 226.018,32.550 226.462,31.138 226.779 C 30.369 226.952,29.067 227.265,28.244 227.476 C 27.420 227.687,26.747 227.729,26.747 227.569 C 26.747 227.410,26.469 227.279,26.131 227.279 C 25.781 227.279,25.603 227.509,25.719 227.811 C 25.831 228.104,25.833 228.343,25.723 228.343 C 25.613 228.343,25.372 227.939,25.187 227.445 C 24.954 226.822,24.874 227.301,24.926 229.011 C 24.968 230.367,25.209 231.726,25.462 232.031 C 25.716 232.337,25.957 233.614,25.998 234.871 C 26.050 236.482,26.260 237.265,26.709 237.528 C 27.222 237.828,27.233 237.902,26.766 237.912 C 26.316 237.921,26.294 238.031,26.667 238.403 C 26.930 238.667,27.146 239.745,27.146 240.798 C 27.146 241.852,27.325 242.715,27.545 242.715 C 27.764 242.715,27.944 243.510,27.944 244.482 C 27.944 245.522,28.191 246.497,28.543 246.849 C 28.872 247.179,29.142 248.005,29.142 248.687 C 29.142 249.419,29.386 250.019,29.741 250.155 C 30.160 250.316,30.339 250.970,30.339 252.338 C 30.339 253.412,30.519 254.291,30.739 254.291 C 30.958 254.291,31.138 254.818,31.138 255.461 C 31.138 256.104,31.407 256.899,31.737 257.228 C 32.066 257.558,32.335 258.276,32.335 258.825 C 32.335 259.374,32.605 260.093,32.934 260.422 C 33.263 260.751,33.533 261.483,33.533 262.047 C 33.533 262.612,33.713 263.074,33.932 263.074 C 34.152 263.074,34.331 263.725,34.331 264.520 C 34.331 265.680,34.437 265.879,34.864 265.524 C 35.258 265.197,35.407 265.210,35.439 265.575 C 35.538 266.711,35.808 267.546,36.156 267.796 C 36.360 267.944,36.567 268.597,36.617 269.248 C 36.768 271.226,37.942 272.389,37.918 270.535 C 37.914 270.249,37.756 270.298,37.521 270.659 C 37.234 271.098,37.155 270.865,37.227 269.785 C 37.317 268.432,37.454 268.278,38.922 267.887 C 41.410 267.222,46.981 265.886,50.499 265.109 C 51.597 264.866,54.112 264.295,56.088 263.838 C 58.064 263.382,61.118 262.681,62.874 262.281 C 64.631 261.882,67.685 261.169,69.661 260.697 C 71.637 260.224,75.230 259.403,77.645 258.871 C 80.060 258.338,83.563 257.530,85.429 257.075 C 87.295 256.620,90.050 255.988,91.551 255.671 C 93.052 255.354,94.474 254.975,94.711 254.828 C 94.948 254.682,96.774 254.247,98.769 253.863 C 100.763 253.478,103.922 252.776,105.788 252.302 C 107.655 251.828,110.349 251.192,111.776 250.889 C 113.204 250.587,116.257 249.877,118.563 249.313 C 120.868 248.749,124.371 247.917,126.347 247.465 C 128.323 247.013,131.377 246.307,133.134 245.897 C 140.256 244.234,143.658 243.468,146.507 242.885 C 148.154 242.548,149.860 242.115,150.299 241.922 C 150.739 241.729,153.343 241.091,156.088 240.504 C 158.832 239.917,161.707 239.284,162.475 239.098 C 163.244 238.912,165.430 238.410,167.334 237.984 C 169.238 237.557,171.419 237.003,172.182 236.751 C 173.907 236.182,178.142 235.846,177.861 236.301 C 177.747 236.485,177.950 236.881,178.312 237.180 C 178.902 237.667,178.949 237.610,178.765 236.639 C 178.651 236.042,178.667 235.619,178.800 235.699 C 178.933 235.779,179.274 235.594,179.557 235.287 C 179.840 234.981,179.948 234.731,179.798 234.731 C 179.647 234.731,180.010 234.281,180.603 233.731 C 181.196 233.181,181.572 232.554,181.439 232.338 C 181.300 232.114,181.462 232.047,181.816 232.183 C 182.280 232.361,182.435 232.155,182.435 231.361 C 182.435 230.743,182.851 229.915,183.433 229.376 C 183.982 228.868,184.431 228.269,184.431 228.047 C 184.431 227.825,184.701 227.419,185.030 227.146 C 185.359 226.872,185.629 226.331,185.629 225.942 C 185.629 225.553,185.898 225.132,186.228 225.005 C 186.557 224.879,186.826 224.500,186.826 224.164 C 186.826 223.828,187.006 223.553,187.226 223.553 C 187.445 223.553,187.625 223.194,187.625 222.754 C 187.625 222.315,187.778 221.956,187.964 221.956 C 188.483 221.956,190.818 218.015,190.818 217.139 C 190.818 216.715,191.014 216.367,191.253 216.367 C 191.879 216.367,193.185 214.694,193.200 213.872 C 193.208 213.488,193.393 213.174,193.613 213.174 C 193.832 213.174,194.012 212.923,194.012 212.618 C 194.012 212.312,194.281 211.958,194.611 211.832 C 194.940 211.705,195.210 211.256,195.210 210.834 C 195.210 210.411,195.479 209.962,195.808 209.836 C 196.138 209.709,196.407 209.241,196.407 208.795 C 196.407 208.349,196.587 207.984,196.806 207.984 C 197.039 207.984,197.206 206.653,197.206 204.790 C 197.206 202.218,197.089 201.597,196.607 201.597 C 196.277 201.597,196.008 201.417,196.008 201.198 C 196.008 200.978,195.559 200.798,195.010 200.798 C 194.389 200.798,194.012 200.572,194.012 200.200 C 194.012 199.870,193.877 199.630,193.713 199.666 C 193.548 199.702,182.009 199.873,168.070 200.047 " stroke="none" fill="#04b6d4" fill-rule="evenodd"></path><path id="path3" d="M371.058 221.573 C 370.180 221.747,367.485 222.367,365.070 222.952 C 362.655 223.537,359.511 224.267,358.084 224.574 C 356.657 224.882,353.513 225.601,351.098 226.173 C 348.683 226.744,345.808 227.397,344.711 227.624 C 343.613 227.851,342.086 228.272,341.317 228.560 C 340.549 228.849,339.202 229.184,338.323 229.304 C 336.631 229.537,335.562 229.777,330.140 231.141 C 328.273 231.611,326.028 232.145,325.150 232.330 C 324.271 232.514,322.655 232.852,321.557 233.082 C 320.459 233.311,318.034 233.879,316.168 234.343 C 314.301 234.807,311.966 235.352,310.978 235.555 C 308.711 236.020,306.862 236.455,302.595 237.529 C 298.969 238.440,296.691 238.952,293.812 239.501 C 292.824 239.689,291.086 240.110,289.950 240.437 C 288.455 240.866,287.934 240.899,288.065 240.555 C 288.174 240.272,287.874 240.080,287.323 240.080 C 286.694 240.080,286.399 240.313,286.399 240.808 C 286.399 241.275,286.603 241.458,286.968 241.318 C 287.427 241.142,287.443 241.214,287.053 241.684 C 286.787 242.005,286.330 242.177,286.039 242.065 C 285.748 241.953,285.374 242.081,285.208 242.350 C 285.016 242.660,285.073 242.735,285.363 242.556 C 285.654 242.376,285.737 242.489,285.591 242.868 C 285.458 243.215,285.101 243.362,284.733 243.221 C 284.244 243.033,284.154 243.173,284.330 243.848 C 284.479 244.418,284.316 244.887,283.855 245.213 C 283.469 245.485,282.852 246.292,282.484 247.006 C 282.117 247.720,281.641 248.303,281.427 248.303 C 281.213 248.303,281.038 248.733,281.038 249.259 C 281.038 249.784,280.768 250.317,280.439 250.444 C 280.110 250.570,279.840 250.949,279.840 251.285 C 279.840 251.621,279.661 251.896,279.441 251.896 C 279.222 251.896,279.042 252.255,279.042 252.695 C 279.042 253.134,278.878 253.493,278.677 253.493 C 278.135 253.493,275.848 257.371,275.848 258.289 C 275.848 258.725,275.653 259.082,275.413 259.082 C 274.787 259.082,273.482 260.755,273.466 261.577 C 273.459 261.961,273.273 262.275,273.054 262.275 C 272.834 262.275,272.655 262.526,272.655 262.832 C 272.655 263.137,272.385 263.491,272.056 263.617 C 271.727 263.744,271.457 264.193,271.457 264.615 C 271.457 265.038,271.188 265.487,270.858 265.613 C 270.529 265.740,270.259 266.208,270.259 266.654 C 270.259 267.100,270.080 267.465,269.860 267.465 C 269.641 267.465,269.461 267.735,269.461 268.064 C 269.461 268.393,269.192 268.663,268.862 268.663 C 268.497 268.663,268.263 269.035,268.263 269.618 C 268.263 270.143,267.983 270.681,267.639 270.813 C 267.296 270.944,267.115 271.214,267.238 271.412 C 267.360 271.611,267.192 271.876,266.864 272.002 C 266.536 272.127,266.267 272.595,266.267 273.041 C 266.267 273.487,266.036 273.852,265.754 273.852 C 265.472 273.852,265.241 274.190,265.241 274.603 C 265.241 275.665,265.584 275.617,276.846 272.984 C 277.725 272.779,279.162 272.460,280.040 272.275 C 280.918 272.091,283.343 271.540,285.429 271.051 C 291.609 269.603,292.340 269.434,294.012 269.069 C 294.890 268.878,297.136 268.347,299.002 267.889 C 300.868 267.431,303.114 266.889,303.992 266.685 C 304.870 266.481,307.565 265.849,309.980 265.279 C 312.395 264.710,315.539 263.987,316.966 263.673 C 318.393 263.358,321.537 262.635,323.952 262.065 C 326.367 261.495,329.207 260.850,330.263 260.631 C 331.319 260.413,333.565 259.865,335.253 259.414 C 336.942 258.963,339.042 258.444,339.920 258.261 C 341.625 257.905,342.565 257.689,348.503 256.284 C 350.589 255.790,353.014 255.240,353.892 255.060 C 354.770 254.881,356.208 254.566,357.086 254.361 C 357.964 254.156,360.366 253.602,362.423 253.130 C 364.481 252.658,366.501 252.091,366.914 251.871 C 367.416 251.602,367.665 251.602,367.665 251.870 C 367.665 252.090,367.964 252.156,368.329 252.015 C 368.827 251.824,368.908 251.902,368.652 252.327 C 368.360 252.811,368.409 252.814,368.985 252.346 C 369.429 251.987,369.661 251.213,369.661 250.094 C 369.661 248.946,369.857 248.314,370.259 248.159 C 370.680 247.998,370.858 247.343,370.858 245.963 C 370.858 244.584,371.037 243.929,371.457 243.768 C 371.866 243.611,372.056 242.971,372.056 241.753 C 372.056 240.771,372.236 239.856,372.455 239.721 C 372.675 239.585,372.854 238.608,372.854 237.550 C 372.854 236.327,373.072 235.446,373.453 235.130 C 373.877 234.778,374.052 233.845,374.052 231.930 C 374.052 229.990,374.209 229.167,374.607 229.014 C 375.034 228.850,375.150 227.915,375.106 224.979 L 375.050 221.158 373.852 221.208 C 373.194 221.235,371.936 221.400,371.058 221.573 M157.389 270.478 C 157.075 270.820,157.039 271.105,157.292 271.262 C 157.511 271.397,157.801 271.219,157.936 270.866 C 158.266 270.007,157.998 269.817,157.389 270.478 M155.884 271.756 C 155.680 272.252,155.540 272.305,155.404 271.939 C 155.280 271.608,155.047 271.555,154.752 271.792 C 154.498 271.995,153.663 272.260,152.894 272.382 C 152.126 272.504,149.970 272.988,148.104 273.457 C 146.238 273.927,143.947 274.478,143.014 274.681 C 139.517 275.442,137.833 275.832,134.531 276.649 C 132.665 277.110,129.611 277.822,127.745 278.231 C 120.563 279.804,117.431 280.551,117.062 280.779 C 116.851 280.910,115.261 281.281,113.529 281.604 C 111.796 281.927,108.852 282.569,106.986 283.030 C 105.120 283.491,102.246 284.137,100.599 284.465 C 98.952 284.793,97.066 285.253,96.407 285.487 C 95.749 285.722,94.491 286.054,93.613 286.225 C 92.735 286.396,90.040 287.023,87.625 287.618 C 85.210 288.213,82.066 288.946,80.639 289.247 C 79.212 289.548,75.709 290.351,72.854 291.030 C 70.000 291.710,66.766 292.450,65.669 292.675 C 62.400 293.345,60.670 293.730,56.886 294.629 C 52.690 295.626,52.199 295.737,51.790 295.778 C 51.414 295.815,51.560 298.204,51.938 298.204 C 52.087 298.204,52.323 298.660,52.463 299.218 C 52.603 299.776,52.892 300.124,53.106 299.993 C 53.319 299.861,53.493 300.039,53.493 300.388 C 53.493 300.737,53.762 301.126,54.092 301.253 C 54.421 301.379,54.691 301.823,54.691 302.238 C 54.691 302.654,54.870 302.994,55.090 302.994 C 55.309 302.994,55.489 303.263,55.489 303.593 C 55.489 303.922,55.758 304.192,56.088 304.192 C 56.417 304.192,56.687 304.461,56.687 304.790 C 56.687 305.120,56.956 305.389,57.285 305.389 C 57.615 305.389,57.884 305.722,57.884 306.129 C 57.884 306.536,58.333 307.354,58.882 307.946 C 59.431 308.539,59.880 309.174,59.880 309.359 C 59.880 309.544,60.150 309.798,60.479 309.925 C 60.808 310.051,61.078 310.418,61.078 310.739 C 61.078 311.061,61.976 312.246,63.074 313.373 C 64.172 314.500,65.070 315.590,65.070 315.795 C 65.070 316.000,65.339 316.168,65.669 316.168 C 66.007 316.168,66.267 316.525,66.267 316.990 C 66.267 317.471,66.444 317.702,66.694 317.548 C 66.928 317.403,67.214 317.646,67.329 318.087 C 67.445 318.528,67.900 318.983,68.341 319.098 C 68.781 319.213,69.024 319.499,68.879 319.734 C 68.734 319.968,68.793 320.160,69.009 320.160 C 69.225 320.160,69.485 320.474,69.585 320.858 C 69.754 321.504,69.771 321.502,69.814 320.835 C 69.839 320.438,70.032 320.219,70.242 320.349 C 70.452 320.478,70.534 320.819,70.423 321.107 C 70.313 321.394,70.532 321.882,70.909 322.192 C 71.526 322.697,71.573 322.666,71.372 321.886 C 71.209 321.254,71.299 321.076,71.702 321.230 C 72.006 321.347,72.255 321.214,72.255 320.934 C 72.255 320.655,72.369 320.539,72.508 320.678 C 72.646 320.817,73.096 320.750,73.506 320.530 C 73.917 320.311,77.352 319.432,81.139 318.577 C 84.926 317.723,89.641 316.636,91.617 316.162 C 97.403 314.773,105.046 312.978,106.986 312.552 C 108.810 312.151,112.034 311.408,116.367 310.389 C 117.685 310.079,120.739 309.380,123.154 308.836 C 125.569 308.291,128.702 307.557,130.117 307.203 C 131.531 306.850,132.933 306.654,133.231 306.769 C 133.530 306.883,133.681 306.826,133.567 306.642 C 133.309 306.225,135.231 305.158,135.591 305.518 C 136.046 305.973,136.926 304.935,136.926 303.943 C 136.926 303.421,137.127 303.039,137.372 303.094 C 137.617 303.149,137.869 302.890,137.932 302.520 C 137.995 302.149,138.513 301.342,139.083 300.727 C 139.653 300.112,140.120 299.312,140.120 298.949 C 140.120 298.586,140.389 298.186,140.719 298.059 C 141.048 297.933,141.317 297.554,141.317 297.218 C 141.317 296.882,141.497 296.607,141.717 296.607 C 141.936 296.607,142.116 296.267,142.116 295.851 C 142.116 295.435,142.385 294.992,142.715 294.866 C 143.044 294.739,143.313 294.181,143.313 293.625 C 143.313 292.993,143.538 292.615,143.912 292.615 C 144.242 292.615,144.511 292.345,144.511 292.016 C 144.511 291.687,144.691 291.417,144.910 291.417 C 145.130 291.417,145.309 290.968,145.309 290.419 C 145.309 289.798,145.536 289.421,145.908 289.421 C 146.238 289.421,146.507 289.152,146.507 288.822 C 146.507 288.493,146.667 288.224,146.863 288.224 C 147.059 288.224,147.332 287.774,147.469 287.226 C 147.607 286.677,147.896 286.228,148.111 286.228 C 148.327 286.228,148.503 285.778,148.503 285.230 C 148.503 284.609,148.729 284.232,149.102 284.232 C 149.431 284.232,149.701 283.962,149.701 283.633 C 149.701 283.303,149.861 283.034,150.057 283.034 C 150.252 283.034,150.525 282.585,150.663 282.036 C 150.801 281.487,151.090 281.038,151.305 281.038 C 151.520 281.038,151.697 280.788,151.697 280.482 C 151.697 280.176,151.966 279.822,152.295 279.696 C 152.625 279.570,152.894 279.178,152.894 278.826 C 152.894 278.474,153.174 277.907,153.516 277.565 C 153.858 277.223,154.043 276.697,153.928 276.396 C 153.809 276.085,153.971 275.848,154.304 275.848 C 154.627 275.848,154.890 275.484,154.890 275.037 C 154.890 274.591,155.159 274.123,155.487 273.998 C 155.815 273.872,155.979 273.600,155.852 273.394 C 155.518 272.853,156.493 271.814,157.031 272.137 C 157.281 272.286,157.238 272.105,156.937 271.733 C 156.260 270.898,156.239 270.899,155.884 271.756 M134.731 306.188 C 134.866 306.407,134.832 306.587,134.654 306.587 C 134.477 306.587,134.306 307.035,134.274 307.582 C 134.242 308.130,134.377 308.478,134.573 308.357 C 134.770 308.236,134.930 307.788,134.930 307.362 C 134.930 306.936,135.110 306.587,135.329 306.587 C 135.549 306.587,135.729 306.407,135.729 306.188 C 135.729 305.968,135.448 305.788,135.106 305.788 C 134.764 305.788,134.595 305.968,134.731 306.188 " stroke="none" fill="#0448d4" fill-rule="evenodd"></path><path id="path4" d="M182.579 23.353 C 182.396 23.832,181.520 23.952,178.201 23.952 C 175.701 23.952,174.052 24.111,174.052 24.351 C 174.052 24.586,172.651 24.750,170.646 24.750 C 167.987 24.750,167.190 24.882,167.011 25.349 C 166.839 25.796,166.128 25.948,164.216 25.948 C 162.305 25.948,161.593 26.101,161.422 26.547 C 161.261 26.966,160.607 27.146,159.239 27.146 C 158.164 27.146,157.285 27.325,157.285 27.545 C 157.285 27.764,156.382 27.944,155.277 27.944 C 153.860 27.944,153.201 28.120,153.039 28.543 C 152.878 28.962,152.223 29.142,150.855 29.142 C 149.385 29.142,148.902 29.290,148.902 29.741 C 148.902 30.173,148.459 30.339,147.305 30.339 C 146.427 30.339,145.709 30.519,145.709 30.739 C 145.709 30.958,144.990 31.138,144.112 31.138 C 142.959 31.138,142.515 31.304,142.515 31.737 C 142.515 32.169,142.071 32.335,140.918 32.335 C 139.765 32.335,139.321 32.502,139.321 32.934 C 139.321 33.333,138.922 33.533,138.124 33.533 C 137.465 33.533,136.926 33.713,136.926 33.932 C 136.926 34.152,136.292 34.331,135.516 34.331 C 134.632 34.331,134.021 34.554,133.877 34.930 C 133.737 35.294,133.133 35.529,132.335 35.529 C 131.538 35.529,130.934 35.764,130.794 36.128 C 130.667 36.457,130.109 36.727,129.553 36.727 C 128.998 36.727,128.543 36.906,128.543 37.126 C 128.543 37.345,128.094 37.525,127.545 37.525 C 126.924 37.525,126.547 37.751,126.547 38.124 C 126.547 38.492,126.173 38.723,125.572 38.723 C 125.037 38.723,124.487 38.902,124.351 39.122 C 124.216 39.341,123.750 39.521,123.317 39.521 C 122.884 39.521,122.426 39.790,122.300 40.120 C 122.174 40.449,121.640 40.719,121.115 40.719 C 120.532 40.719,120.160 40.952,120.160 41.317 C 120.160 41.690,119.783 41.916,119.162 41.916 C 118.613 41.916,118.164 42.096,118.164 42.315 C 118.164 42.535,117.709 42.715,117.153 42.715 C 116.597 42.715,116.039 42.984,115.913 43.313 C 115.786 43.643,115.253 43.912,114.728 43.912 C 114.145 43.912,113.772 44.146,113.772 44.511 C 113.772 44.884,113.395 45.110,112.774 45.110 C 112.226 45.110,111.776 45.289,111.776 45.509 C 111.776 45.729,111.462 45.914,111.078 45.921 C 110.256 45.937,108.583 47.242,108.583 47.868 C 108.583 48.108,108.044 48.303,107.385 48.303 C 106.727 48.303,106.188 48.483,106.188 48.703 C 106.188 48.922,105.865 49.102,105.470 49.102 C 105.076 49.102,104.312 49.633,103.774 50.282 C 103.235 50.932,102.467 51.471,102.067 51.480 C 101.262 51.499,100.200 52.400,100.200 53.065 C 100.200 53.301,99.776 53.493,99.258 53.493 C 98.719 53.493,97.995 53.920,97.566 54.491 C 97.154 55.040,96.590 55.489,96.312 55.489 C 96.035 55.489,95.808 55.758,95.808 56.088 C 95.808 56.460,95.431 56.687,94.810 56.687 C 94.189 56.687,93.812 56.913,93.812 57.285 C 93.812 57.615,93.543 57.884,93.214 57.884 C 92.884 57.884,92.615 58.064,92.615 58.283 C 92.615 58.503,92.345 58.683,92.016 58.683 C 91.687 58.683,91.417 58.952,91.417 59.281 C 91.417 59.654,91.040 59.880,90.419 59.880 C 89.798 59.880,89.421 60.106,89.421 60.479 C 89.421 60.808,89.229 61.078,88.993 61.078 C 88.441 61.078,87.425 62.093,87.425 62.646 C 87.425 62.881,87.156 63.074,86.826 63.074 C 86.497 63.074,86.228 63.250,86.228 63.465 C 86.228 63.681,85.778 63.970,85.230 64.108 C 84.681 64.245,84.232 64.518,84.232 64.714 C 84.232 64.910,83.962 65.070,83.633 65.070 C 83.303 65.070,83.034 65.309,83.034 65.601 C 83.034 65.893,82.585 66.373,82.036 66.667 C 81.487 66.960,81.038 67.440,81.038 67.732 C 81.038 68.024,80.768 68.263,80.439 68.263 C 80.110 68.263,79.840 68.503,79.840 68.795 C 79.840 69.087,79.391 69.567,78.842 69.860 C 78.293 70.154,77.844 70.634,77.844 70.926 C 77.844 71.218,77.575 71.457,77.246 71.457 C 76.916 71.457,76.647 71.650,76.647 71.885 C 76.647 72.437,75.631 73.453,75.078 73.453 C 74.843 73.453,74.651 73.723,74.651 74.052 C 74.651 74.381,74.381 74.651,74.052 74.651 C 73.723 74.651,73.453 74.843,73.453 75.078 C 73.453 75.631,72.437 76.647,71.885 76.647 C 71.650 76.647,71.457 76.916,71.457 77.246 C 71.457 77.575,71.188 77.844,70.858 77.844 C 70.529 77.844,70.259 78.037,70.259 78.272 C 70.259 78.825,69.244 79.840,68.691 79.840 C 68.456 79.840,68.263 80.110,68.263 80.439 C 68.263 80.768,67.994 81.038,67.665 81.038 C 67.335 81.038,67.066 81.230,67.066 81.466 C 67.066 82.018,66.050 83.034,65.498 83.034 C 65.262 83.034,65.070 83.303,65.070 83.633 C 65.070 83.962,64.894 84.232,64.678 84.232 C 64.463 84.232,64.174 84.681,64.036 85.230 C 63.898 85.778,63.626 86.228,63.430 86.228 C 63.234 86.228,63.074 86.497,63.074 86.826 C 63.074 87.156,62.804 87.425,62.475 87.425 C 62.146 87.425,61.876 87.695,61.876 88.024 C 61.876 88.353,61.684 88.623,61.449 88.623 C 60.744 88.623,59.880 89.706,59.880 90.590 C 59.880 91.059,59.621 91.417,59.281 91.417 C 58.952 91.417,58.683 91.605,58.683 91.835 C 58.683 92.065,58.234 92.670,57.685 93.179 C 57.136 93.687,56.687 94.487,56.687 94.956 C 56.687 95.448,56.433 95.808,56.088 95.808 C 55.758 95.808,55.489 96.035,55.489 96.312 C 55.489 96.590,55.040 97.154,54.491 97.566 C 53.920 97.995,53.493 98.719,53.493 99.258 C 53.493 99.776,53.288 100.200,53.038 100.200 C 52.367 100.200,51.524 101.465,51.510 102.495 C 51.503 102.989,51.319 103.393,51.102 103.393 C 50.322 103.393,49.102 104.787,49.102 105.678 C 49.102 106.178,48.922 106.587,48.703 106.587 C 48.483 106.587,48.303 107.036,48.303 107.585 C 48.303 108.206,48.077 108.583,47.705 108.583 C 47.375 108.583,47.106 108.833,47.106 109.139 C 47.106 109.445,46.836 109.798,46.507 109.925 C 46.178 110.051,45.908 110.520,45.908 110.966 C 45.908 111.412,45.729 111.776,45.509 111.776 C 45.289 111.776,45.110 112.226,45.110 112.774 C 45.110 113.395,44.884 113.772,44.511 113.772 C 44.146 113.772,43.912 114.145,43.912 114.728 C 43.912 115.253,43.643 115.786,43.313 115.913 C 42.984 116.039,42.715 116.532,42.715 117.008 C 42.715 117.483,42.265 118.289,41.717 118.797 C 41.168 119.306,40.719 120.013,40.719 120.369 C 40.719 120.724,40.449 121.285,40.120 121.614 C 39.790 121.943,39.521 122.739,39.521 123.382 C 39.521 124.025,39.341 124.551,39.122 124.551 C 38.902 124.551,38.723 125.000,38.723 125.549 C 38.723 126.170,38.496 126.547,38.124 126.547 C 37.784 126.547,37.525 126.905,37.525 127.374 C 37.525 127.829,37.255 128.470,36.926 128.800 C 36.597 129.129,36.327 129.745,36.327 130.168 C 36.327 130.592,36.148 130.938,35.928 130.938 C 35.709 130.938,35.529 131.657,35.529 132.535 C 35.529 133.688,35.363 134.132,34.930 134.132 C 34.558 134.132,34.331 134.509,34.331 135.130 C 34.331 135.679,34.152 136.128,33.932 136.128 C 33.713 136.128,33.533 136.846,33.533 137.725 C 33.533 138.878,33.367 139.321,32.934 139.321 C 32.502 139.321,32.335 139.765,32.335 140.918 C 32.335 142.071,32.169 142.515,31.737 142.515 C 31.304 142.515,31.138 142.959,31.138 144.112 C 31.138 144.990,30.958 145.709,30.739 145.709 C 30.519 145.709,30.339 146.427,30.339 147.305 C 30.339 148.459,30.173 148.902,29.741 148.902 C 29.290 148.902,29.142 149.385,29.142 150.855 C 29.142 152.223,28.962 152.878,28.543 153.039 C 28.120 153.201,27.944 153.860,27.944 155.277 C 27.944 156.382,27.764 157.285,27.545 157.285 C 27.325 157.285,27.146 158.273,27.146 159.481 C 27.146 161.167,27.007 161.677,26.547 161.677 C 26.076 161.677,25.948 162.231,25.948 164.271 C 25.948 166.312,25.820 166.866,25.349 166.866 C 24.867 166.866,24.750 167.487,24.750 170.060 C 24.750 171.923,24.584 173.253,24.351 173.253 C 24.107 173.253,23.952 175.116,23.952 178.044 C 23.952 182.063,23.854 182.834,23.346 182.834 C 22.812 182.834,22.742 184.922,22.763 200.194 C 22.781 213.551,22.898 217.532,23.270 217.460 C 23.614 217.392,23.786 218.452,23.868 221.144 C 23.932 223.222,24.168 225.036,24.392 225.175 C 24.615 225.313,24.833 226.052,24.874 226.817 C 24.916 227.582,25.158 228.208,25.411 228.209 C 25.665 228.210,25.792 228.001,25.693 227.745 C 25.595 227.488,25.792 227.279,26.131 227.279 C 26.469 227.279,26.747 227.410,26.747 227.569 C 26.747 227.729,27.420 227.687,28.244 227.476 C 29.067 227.265,30.369 226.952,31.138 226.779 C 32.484 226.477,34.017 226.076,37.625 225.081 C 38.558 224.824,40.220 224.477,41.317 224.311 C 43.812 223.932,45.647 223.501,49.701 222.341 C 51.457 221.839,53.569 221.348,54.394 221.250 C 55.218 221.153,55.993 220.913,56.114 220.716 C 56.235 220.520,57.022 220.359,57.862 220.359 C 58.702 220.359,60.263 220.105,61.331 219.793 C 62.400 219.482,64.441 218.932,65.868 218.570 C 67.295 218.208,69.015 217.744,69.689 217.539 C 70.363 217.334,71.474 217.166,72.158 217.166 C 72.842 217.166,73.907 216.973,74.525 216.737 C 75.143 216.501,76.367 216.147,77.246 215.950 C 78.124 215.753,80.010 215.304,81.437 214.952 C 83.796 214.369,87.285 213.601,90.419 212.975 C 91.078 212.844,92.515 212.486,93.613 212.181 C 94.711 211.875,96.327 211.449,97.206 211.234 C 98.084 211.018,99.611 210.617,100.599 210.342 C 101.587 210.068,103.293 209.704,104.391 209.535 C 105.489 209.365,107.555 208.935,108.982 208.578 C 110.409 208.222,112.352 207.766,113.300 207.565 C 114.248 207.364,115.209 207.085,115.436 206.945 C 115.663 206.805,116.863 206.543,118.104 206.364 C 120.607 206.003,121.662 205.768,127.745 204.213 C 130.050 203.624,132.565 202.982,133.333 202.785 C 134.102 202.589,135.629 202.296,136.727 202.135 L 138.723 201.842 137.126 201.577 C 135.917 201.375,136.369 201.297,138.989 201.254 C 140.988 201.222,142.507 201.022,142.587 200.781 C 142.681 200.501,151.080 200.259,168.070 200.047 C 193.062 199.735,192.773 199.730,147.248 199.666 C 105.998 199.608,101.058 199.535,100.846 198.983 C 100.716 198.644,100.293 198.419,99.906 198.484 C 99.429 198.565,99.159 198.305,99.071 197.680 C 98.999 197.173,98.685 196.660,98.372 196.540 C 98.060 196.420,97.804 195.892,97.804 195.366 C 97.804 194.841,97.625 194.411,97.405 194.411 C 97.186 194.411,97.006 193.782,97.006 193.014 C 97.006 192.246,97.186 191.617,97.405 191.617 C 97.625 191.617,97.804 191.257,97.804 190.818 C 97.804 190.375,98.071 190.020,98.403 190.020 C 98.776 190.020,99.002 189.643,99.002 189.022 C 99.002 188.473,99.161 188.024,99.355 188.024 C 99.549 188.024,99.806 187.647,99.927 187.185 C 100.051 186.711,100.335 186.464,100.582 186.616 C 100.822 186.764,100.992 186.738,100.961 186.557 C 100.752 185.356,101.051 184.477,101.597 184.686 C 102.035 184.854,102.196 184.636,102.196 183.875 C 102.196 183.303,102.354 182.834,102.548 182.834 C 102.742 182.834,103.000 182.457,103.120 181.996 C 103.241 181.534,103.531 181.276,103.766 181.421 C 104.023 181.580,104.192 181.297,104.192 180.705 C 104.192 180.167,104.461 179.623,104.790 179.496 C 105.120 179.370,105.389 178.854,105.389 178.351 C 105.389 177.840,105.831 177.104,106.387 176.686 C 106.958 176.257,107.385 175.533,107.385 174.994 C 107.385 174.476,107.590 174.052,107.840 174.052 C 108.511 174.052,109.354 172.786,109.369 171.756 C 109.376 171.230,109.629 170.858,109.980 170.858 C 110.353 170.858,110.579 170.481,110.579 169.860 C 110.579 169.239,110.805 168.862,111.178 168.862 C 111.507 168.862,111.776 168.593,111.776 168.263 C 111.776 167.934,111.956 167.665,112.176 167.665 C 112.395 167.665,112.575 167.216,112.575 166.667 C 112.575 166.046,112.801 165.669,113.174 165.669 C 113.503 165.669,113.772 165.418,113.772 165.113 C 113.772 164.807,114.042 164.453,114.371 164.327 C 114.701 164.200,114.970 163.732,114.970 163.286 C 114.970 162.840,115.150 162.475,115.369 162.475 C 115.589 162.475,115.768 162.026,115.768 161.477 C 115.768 160.856,115.995 160.479,116.367 160.479 C 116.697 160.479,116.966 160.210,116.966 159.880 C 116.966 159.551,117.126 159.281,117.322 159.281 C 117.518 159.281,117.791 158.832,117.928 158.283 C 118.066 157.735,118.355 157.285,118.570 157.285 C 118.786 157.285,118.962 157.016,118.962 156.687 C 118.962 156.357,119.232 156.088,119.561 156.088 C 119.933 156.088,120.160 155.711,120.160 155.090 C 120.160 154.541,120.320 154.092,120.516 154.092 C 120.711 154.092,120.984 153.643,121.122 153.094 C 121.260 152.545,121.549 152.096,121.764 152.096 C 121.979 152.096,122.156 151.846,122.156 151.540 C 122.156 151.234,122.425 150.880,122.754 150.754 C 123.084 150.627,123.353 150.159,123.353 149.713 C 123.353 149.267,123.533 148.902,123.752 148.902 C 123.972 148.902,124.152 148.363,124.152 147.705 C 124.152 147.046,124.329 146.507,124.546 146.507 C 125.291 146.507,126.547 145.132,126.547 144.317 C 126.547 143.869,126.996 143.166,127.545 142.753 C 128.116 142.325,128.543 141.601,128.543 141.062 C 128.543 140.491,128.779 140.120,129.142 140.120 C 129.514 140.120,129.741 139.743,129.741 139.122 C 129.741 138.573,129.920 138.124,130.140 138.124 C 130.359 138.124,130.539 137.854,130.539 137.525 C 130.539 137.196,130.808 136.926,131.138 136.926 C 131.510 136.926,131.737 136.549,131.737 135.928 C 131.737 135.307,131.963 134.930,132.335 134.930 C 132.665 134.930,132.934 134.661,132.934 134.331 C 132.934 134.002,133.114 133.733,133.333 133.733 C 133.553 133.733,133.733 133.283,133.733 132.735 C 133.733 132.114,133.959 131.737,134.331 131.737 C 134.704 131.737,134.930 131.360,134.930 130.739 C 134.930 130.118,135.156 129.741,135.529 129.741 C 135.858 129.741,136.128 129.471,136.128 129.142 C 136.128 128.812,136.307 128.543,136.527 128.543 C 136.747 128.543,136.926 128.094,136.926 127.545 C 136.926 126.924,137.152 126.547,137.525 126.547 C 137.862 126.547,138.124 126.190,138.124 125.729 C 138.124 125.280,138.573 124.496,139.122 123.987 C 139.671 123.478,140.120 122.679,140.120 122.210 C 140.120 121.718,140.373 121.357,140.719 121.357 C 141.048 121.357,141.317 121.088,141.317 120.758 C 141.317 120.429,141.478 120.160,141.673 120.160 C 141.869 120.160,142.142 119.711,142.280 119.162 C 142.417 118.613,142.706 118.164,142.922 118.164 C 143.137 118.164,143.313 117.625,143.313 116.966 C 143.313 116.307,143.506 115.768,143.741 115.768 C 144.503 115.768,145.309 114.654,145.309 113.601 C 145.309 113.037,145.487 112.575,145.704 112.575 C 146.484 112.575,147.705 111.181,147.705 110.291 C 147.705 109.790,147.884 109.381,148.104 109.381 C 148.323 109.381,148.503 108.932,148.503 108.383 C 148.503 107.834,148.681 107.385,148.898 107.385 C 149.621 107.385,150.898 106.020,150.898 105.246 C 150.898 104.826,151.347 104.067,151.896 103.558 C 152.445 103.049,152.894 102.265,152.894 101.815 C 152.894 101.355,153.156 100.998,153.493 100.998 C 153.866 100.998,154.092 100.621,154.092 100.000 C 154.092 99.451,154.271 99.002,154.491 99.002 C 154.711 99.002,154.890 98.733,154.890 98.403 C 154.890 98.074,155.160 97.804,155.489 97.804 C 155.862 97.804,156.088 97.427,156.088 96.806 C 156.088 96.185,156.314 95.808,156.687 95.808 C 157.059 95.808,157.285 95.431,157.285 94.810 C 157.285 94.261,157.465 93.812,157.685 93.812 C 157.904 93.812,158.084 93.543,158.084 93.214 C 158.084 92.884,158.353 92.615,158.683 92.615 C 159.020 92.615,159.281 92.258,159.281 91.797 C 159.281 91.348,159.731 90.564,160.279 90.055 C 160.828 89.546,161.277 88.746,161.277 88.278 C 161.277 87.786,161.531 87.425,161.876 87.425 C 162.214 87.425,162.475 87.068,162.475 86.608 C 162.475 86.158,162.924 85.374,163.473 84.865 C 164.022 84.357,164.471 83.638,164.471 83.268 C 164.471 82.899,164.920 82.180,165.469 81.672 C 166.018 81.163,166.467 80.363,166.467 79.894 C 166.467 79.403,166.721 79.042,167.066 79.042 C 167.465 79.042,167.665 78.643,167.665 77.844 C 167.665 77.186,167.869 76.647,168.120 76.647 C 168.791 76.647,169.633 75.381,169.648 74.351 C 169.655 73.857,169.838 73.453,170.055 73.453 C 170.836 73.453,172.056 72.060,172.056 71.169 C 172.056 70.669,172.236 70.259,172.455 70.259 C 172.675 70.259,172.854 69.810,172.854 69.261 C 172.854 68.640,173.081 68.263,173.453 68.263 C 173.782 68.263,174.052 68.013,174.052 67.707 C 174.052 67.402,174.321 67.048,174.651 66.922 C 174.980 66.795,175.250 66.327,175.250 65.881 C 175.250 65.435,175.429 65.070,175.649 65.070 C 175.868 65.070,176.048 64.621,176.048 64.072 C 176.048 63.451,176.274 63.074,176.647 63.074 C 176.976 63.074,177.246 62.804,177.246 62.475 C 177.246 62.146,177.515 61.876,177.844 61.876 C 178.217 61.876,178.443 61.499,178.443 60.878 C 178.443 60.329,178.623 59.880,178.842 59.880 C 179.062 59.880,179.242 59.611,179.242 59.281 C 179.242 58.952,179.511 58.683,179.840 58.683 C 180.206 58.683,180.439 58.310,180.439 57.727 C 180.439 57.202,180.709 56.669,181.038 56.542 C 181.367 56.416,181.637 55.948,181.637 55.502 C 181.637 55.056,181.816 54.691,182.036 54.691 C 182.255 54.691,182.435 54.421,182.435 54.092 C 182.435 53.762,182.705 53.493,183.034 53.493 C 183.371 53.493,183.633 53.136,183.633 52.676 C 183.633 52.226,184.082 51.442,184.631 50.933 C 185.180 50.424,185.629 49.644,185.629 49.199 C 185.629 48.753,185.898 48.285,186.228 48.159 C 186.557 48.033,186.826 47.545,186.826 47.076 C 186.826 46.607,187.275 45.869,187.824 45.438 C 188.399 44.985,188.822 44.242,188.822 43.684 C 188.822 43.088,189.053 42.715,189.421 42.715 C 189.794 42.715,190.020 42.338,190.020 41.717 C 190.020 41.168,190.200 40.719,190.419 40.719 C 190.639 40.719,190.818 40.449,190.818 40.120 C 190.818 39.790,191.088 39.521,191.417 39.521 C 191.790 39.521,192.016 39.144,192.016 38.523 C 192.016 37.902,192.242 37.525,192.615 37.525 C 192.944 37.525,193.214 37.255,193.214 36.926 C 193.214 36.597,193.393 36.327,193.613 36.327 C 193.832 36.327,194.012 35.878,194.012 35.329 C 194.012 34.708,194.238 34.331,194.611 34.331 C 194.983 34.331,195.210 33.954,195.210 33.333 C 195.210 32.712,195.436 32.335,195.808 32.335 C 196.138 32.335,196.407 32.066,196.407 31.737 C 196.407 31.407,196.587 31.138,196.806 31.138 C 197.026 31.138,197.206 30.689,197.206 30.140 C 197.206 29.519,197.432 29.142,197.804 29.142 C 198.264 29.142,198.403 28.632,198.403 26.946 C 198.403 25.261,198.264 24.750,197.804 24.750 C 197.432 24.750,197.206 24.373,197.206 23.752 L 197.206 22.754 190.007 22.754 C 183.977 22.754,182.772 22.852,182.579 23.353 M293.812 52.894 C 293.812 53.224,293.543 53.493,293.214 53.493 C 292.841 53.493,292.615 53.870,292.615 54.491 C 292.615 55.112,292.389 55.489,292.016 55.489 C 291.687 55.489,291.417 55.758,291.417 56.088 C 291.417 56.417,291.238 56.687,291.018 56.687 C 290.798 56.687,290.619 57.136,290.619 57.685 C 290.619 58.306,290.393 58.683,290.020 58.683 C 289.691 58.683,289.421 58.933,289.421 59.239 C 289.421 59.545,289.152 59.898,288.822 60.025 C 288.493 60.151,288.224 60.619,288.224 61.065 C 288.224 61.511,288.044 61.876,287.824 61.876 C 287.605 61.876,287.418 62.280,287.408 62.774 C 287.399 63.268,286.860 64.113,286.211 64.652 C 285.561 65.191,285.030 65.954,285.030 66.349 C 285.030 66.743,284.850 67.066,284.631 67.066 C 284.411 67.066,284.232 67.316,284.232 67.622 C 284.232 67.928,283.962 68.281,283.633 68.408 C 283.303 68.534,283.034 68.983,283.034 69.406 C 283.034 69.828,282.764 70.277,282.435 70.404 C 282.106 70.530,281.836 71.046,281.836 71.549 C 281.836 72.060,281.395 72.797,280.838 73.215 C 280.289 73.627,279.840 74.317,279.840 74.749 C 279.840 75.181,279.391 75.887,278.842 76.319 C 278.267 76.771,277.844 77.515,277.844 78.073 C 277.844 78.668,277.613 79.042,277.246 79.042 C 276.873 79.042,276.647 79.419,276.647 80.040 C 276.647 80.589,276.467 81.038,276.248 81.038 C 276.028 81.038,275.848 81.307,275.848 81.637 C 275.848 81.966,275.579 82.236,275.250 82.236 C 274.877 82.236,274.651 82.613,274.651 83.234 C 274.651 83.855,274.424 84.232,274.052 84.232 C 273.723 84.232,273.453 84.501,273.453 84.830 C 273.453 85.160,273.273 85.429,273.054 85.429 C 272.834 85.429,272.655 85.878,272.655 86.427 C 272.655 87.048,272.428 87.425,272.056 87.425 C 271.683 87.425,271.457 87.802,271.457 88.423 C 271.457 89.044,271.231 89.421,270.858 89.421 C 270.529 89.421,270.259 89.691,270.259 90.020 C 270.259 90.349,270.080 90.619,269.860 90.619 C 269.641 90.619,269.461 91.068,269.461 91.617 C 269.461 92.238,269.235 92.615,268.862 92.615 C 268.533 92.615,268.263 92.865,268.263 93.171 C 268.263 93.477,267.994 93.830,267.665 93.957 C 267.335 94.083,267.066 94.551,267.066 94.997 C 267.066 95.443,266.886 95.808,266.667 95.808 C 266.447 95.808,266.267 96.257,266.267 96.806 C 266.267 97.427,266.041 97.804,265.669 97.804 C 265.339 97.804,265.070 98.055,265.070 98.360 C 265.070 98.666,264.800 99.020,264.471 99.146 C 264.142 99.273,263.872 99.741,263.872 100.187 C 263.872 100.633,263.693 100.998,263.473 100.998 C 263.253 100.998,263.074 101.267,263.074 101.597 C 263.074 101.926,262.804 102.196,262.475 102.196 C 262.110 102.196,261.876 102.568,261.876 103.151 C 261.876 103.676,261.607 104.210,261.277 104.336 C 260.948 104.462,260.679 104.944,260.679 105.405 C 260.679 106.300,259.819 107.385,259.110 107.385 C 258.875 107.385,258.683 107.894,258.683 108.515 C 258.683 109.312,258.388 109.803,257.685 110.180 C 256.981 110.556,256.687 111.047,256.687 111.844 C 256.687 112.582,256.479 112.974,256.088 112.974 C 255.743 112.974,255.489 113.335,255.489 113.826 C 255.489 114.295,255.040 115.095,254.491 115.604 C 253.942 116.113,253.493 116.897,253.493 117.346 C 253.493 117.807,253.232 118.164,252.894 118.164 C 252.565 118.164,252.295 118.433,252.295 118.762 C 252.295 119.092,252.116 119.361,251.896 119.361 C 251.677 119.361,251.497 119.810,251.497 120.359 C 251.497 120.980,251.271 121.357,250.898 121.357 C 250.526 121.357,250.299 121.734,250.299 122.355 C 250.299 122.976,250.073 123.353,249.701 123.353 C 249.371 123.353,249.102 123.623,249.102 123.952 C 249.102 124.281,248.922 124.551,248.703 124.551 C 248.483 124.551,248.303 125.000,248.303 125.549 C 248.303 126.170,248.077 126.547,247.705 126.547 C 247.375 126.547,247.106 126.797,247.106 127.103 C 247.106 127.409,246.836 127.762,246.507 127.889 C 246.178 128.015,245.908 128.484,245.908 128.930 C 245.908 129.376,245.729 129.741,245.509 129.741 C 245.289 129.741,245.110 130.190,245.110 130.739 C 245.110 131.360,244.884 131.737,244.511 131.737 C 244.182 131.737,243.912 131.987,243.912 132.293 C 243.912 132.598,243.643 132.952,243.313 133.078 C 242.984 133.205,242.715 133.673,242.715 134.119 C 242.715 134.565,242.535 134.930,242.315 134.930 C 242.096 134.930,241.916 135.200,241.916 135.529 C 241.916 135.858,241.647 136.128,241.317 136.128 C 240.952 136.128,240.719 136.500,240.719 137.083 C 240.719 137.608,240.449 138.142,240.120 138.268 C 239.790 138.394,239.521 138.863,239.521 139.309 C 239.521 139.755,239.362 140.120,239.168 140.120 C 238.974 140.120,238.717 140.497,238.596 140.958 C 238.476 141.420,238.223 141.701,238.034 141.585 C 237.845 141.468,237.662 141.752,237.627 142.217 C 237.592 142.681,237.282 143.218,236.937 143.411 C 236.592 143.604,236.415 143.930,236.542 144.136 C 236.669 144.342,236.494 144.511,236.151 144.511 C 235.761 144.511,235.529 144.867,235.529 145.466 C 235.529 145.992,235.259 146.525,234.930 146.651 C 234.601 146.778,234.331 147.259,234.331 147.721 C 234.331 148.566,233.482 149.701,232.850 149.701 C 232.663 149.701,232.473 150.139,232.429 150.674 C 232.385 151.209,231.896 152.099,231.344 152.652 C 230.791 153.204,230.339 154.024,230.339 154.473 C 230.339 154.933,230.078 155.289,229.741 155.289 C 229.368 155.289,229.142 155.666,229.142 156.287 C 229.142 156.908,228.916 157.285,228.543 157.285 C 228.214 157.285,227.944 157.555,227.944 157.884 C 227.944 158.214,227.764 158.483,227.545 158.483 C 227.325 158.483,227.146 158.932,227.146 159.481 C 227.146 160.102,226.919 160.479,226.547 160.479 C 226.218 160.479,225.948 160.729,225.948 161.035 C 225.948 161.341,225.679 161.695,225.349 161.821 C 225.020 161.947,224.750 162.416,224.750 162.862 C 224.750 163.308,224.571 163.673,224.351 163.673 C 224.132 163.673,223.952 164.041,223.952 164.490 C 223.952 164.940,223.458 165.766,222.854 166.327 C 222.250 166.887,221.750 167.552,221.742 167.805 C 221.734 168.057,221.082 169.266,220.294 170.491 C 219.505 171.716,218.735 173.111,218.583 173.590 C 218.430 174.070,218.139 174.360,217.935 174.234 C 217.732 174.108,217.565 174.369,217.565 174.814 C 217.565 175.337,217.370 175.549,217.016 175.413 C 216.636 175.267,216.467 175.526,216.467 176.254 C 216.467 176.832,216.239 177.516,215.959 177.774 C 215.568 178.136,215.516 178.129,215.733 177.745 C 216.164 176.982,215.829 177.149,215.010 178.105 C 214.294 178.942,214.294 178.958,215.021 178.703 C 215.719 178.458,215.723 178.477,215.076 178.981 C 214.695 179.277,214.508 179.644,214.659 179.796 C 214.811 179.947,214.539 180.175,214.054 180.302 C 213.570 180.429,213.176 180.826,213.180 181.184 C 213.185 181.694,213.260 181.720,213.523 181.304 C 213.794 180.878,213.911 180.902,214.112 181.424 C 214.249 181.784,214.196 181.974,213.992 181.849 C 213.788 181.723,213.476 181.859,213.298 182.151 C 213.120 182.444,212.525 183.003,211.976 183.394 C 211.079 184.034,211.065 184.080,211.843 183.853 C 212.318 183.714,212.811 183.769,212.938 183.974 C 213.082 184.206,213.739 184.202,214.669 183.964 C 215.493 183.753,216.796 183.434,217.565 183.256 C 220.584 182.556,223.009 181.950,224.180 181.602 C 224.854 181.402,225.867 181.238,226.430 181.238 C 226.993 181.238,228.327 180.983,229.395 180.672 C 230.463 180.360,232.505 179.810,233.932 179.448 C 235.359 179.086,237.066 178.640,237.725 178.455 C 238.383 178.271,239.641 178.008,240.519 177.871 C 241.948 177.649,248.193 176.203,251.896 175.236 C 252.665 175.036,254.641 174.587,256.287 174.239 C 257.934 173.891,260.000 173.410,260.878 173.171 C 261.756 172.932,263.104 172.595,263.872 172.423 C 264.641 172.252,266.437 171.819,267.864 171.462 C 269.291 171.106,271.357 170.654,272.455 170.459 C 273.553 170.264,275.619 169.813,277.046 169.457 C 278.473 169.100,280.416 168.644,281.364 168.443 C 282.312 168.242,283.237 167.985,283.420 167.872 C 283.604 167.759,285.163 167.380,286.887 167.031 C 288.610 166.681,290.649 166.245,291.417 166.061 C 292.186 165.877,294.072 165.428,295.609 165.063 C 297.146 164.698,299.122 164.227,300.000 164.017 C 300.878 163.807,302.495 163.462,303.593 163.251 C 304.691 163.040,306.218 162.703,306.986 162.503 C 307.754 162.303,309.551 161.841,310.978 161.476 C 312.405 161.111,314.447 160.558,315.515 160.247 C 316.583 159.935,318.007 159.681,318.680 159.681 C 319.353 159.681,320.455 159.513,321.129 159.307 C 321.804 159.102,323.523 158.641,324.950 158.283 C 326.377 157.926,328.174 157.430,328.942 157.183 C 329.711 156.935,331.238 156.600,332.335 156.438 C 334.269 156.153,335.303 155.931,339.521 154.899 C 340.619 154.630,342.236 154.240,343.114 154.031 C 343.992 153.823,345.543 153.392,346.561 153.074 C 347.578 152.756,348.959 152.495,349.628 152.495 C 350.298 152.495,351.352 152.302,351.970 152.066 C 352.588 151.831,353.812 151.483,354.691 151.295 C 355.569 151.106,357.455 150.666,358.882 150.316 C 360.309 149.966,362.590 149.445,363.951 149.158 C 365.311 148.871,366.687 148.418,367.009 148.151 C 367.366 147.855,367.686 147.815,367.831 148.050 C 367.962 148.262,367.843 148.532,367.567 148.650 C 367.292 148.768,367.550 148.797,368.141 148.715 C 368.732 148.632,369.297 148.775,369.397 149.033 C 369.497 149.290,369.560 149.109,369.537 148.630 C 369.514 148.152,369.389 147.825,369.259 147.906 C 368.668 148.271,367.922 147.359,368.370 146.818 C 368.857 146.232,368.890 144.447,368.408 144.745 C 367.956 145.024,367.647 144.277,367.590 142.771 C 367.553 141.794,367.382 141.451,367.003 141.596 C 366.602 141.750,366.467 141.333,366.467 139.939 C 366.467 138.799,366.312 138.172,366.068 138.323 C 365.827 138.472,365.669 137.924,365.669 136.937 C 365.669 135.854,365.467 135.227,365.070 135.075 C 364.741 134.948,364.471 134.415,364.471 133.889 C 364.471 133.364,364.314 132.934,364.123 132.934 C 363.931 132.934,363.660 132.216,363.519 131.337 C 363.379 130.459,363.087 129.741,362.870 129.741 C 362.653 129.741,362.475 129.400,362.475 128.985 C 362.475 128.569,362.206 128.126,361.876 127.999 C 361.526 127.865,361.277 127.267,361.277 126.559 C 361.277 125.805,361.073 125.349,360.734 125.349 C 360.370 125.349,360.253 125.021,360.381 124.351 C 360.521 123.620,360.400 123.353,359.927 123.353 C 359.505 123.353,359.281 123.008,359.281 122.355 C 359.281 121.734,359.055 121.357,358.683 121.357 C 358.283 121.357,358.084 120.958,358.084 120.160 C 358.084 119.501,357.904 118.962,357.685 118.962 C 357.465 118.962,357.285 118.513,357.285 117.964 C 357.285 117.343,357.059 116.966,356.687 116.966 C 356.314 116.966,356.088 116.589,356.088 115.968 C 356.088 115.347,355.862 114.970,355.489 114.970 C 355.116 114.970,354.890 114.593,354.890 113.972 C 354.890 113.423,354.711 112.974,354.491 112.974 C 354.271 112.974,354.092 112.565,354.092 112.065 C 354.092 111.174,352.872 109.780,352.091 109.780 C 351.874 109.780,351.697 109.242,351.697 108.583 C 351.697 107.924,351.517 107.385,351.297 107.385 C 351.078 107.385,350.898 107.020,350.898 106.574 C 350.898 106.128,350.629 105.660,350.299 105.534 C 349.970 105.407,349.701 105.054,349.701 104.748 C 349.701 104.442,349.431 104.192,349.102 104.192 C 348.729 104.192,348.503 103.815,348.503 103.194 C 348.503 102.645,348.323 102.196,348.104 102.196 C 347.884 102.196,347.705 101.926,347.705 101.597 C 347.705 101.267,347.435 100.998,347.106 100.998 C 346.733 100.998,346.507 100.621,346.507 100.000 C 346.507 99.379,346.281 99.002,345.908 99.002 C 345.579 99.002,345.309 98.733,345.309 98.403 C 345.309 98.074,345.130 97.804,344.910 97.804 C 344.691 97.804,344.511 97.439,344.511 96.993 C 344.511 96.547,344.242 96.079,343.912 95.953 C 343.583 95.826,343.313 95.503,343.313 95.234 C 343.313 94.966,342.864 94.505,342.315 94.212 C 341.689 93.876,341.317 93.331,341.317 92.747 C 341.317 92.186,341.080 91.816,340.719 91.816 C 340.389 91.816,340.120 91.547,340.120 91.218 C 340.120 90.888,339.940 90.619,339.721 90.619 C 339.501 90.619,339.321 90.349,339.321 90.020 C 339.321 89.691,339.052 89.421,338.723 89.421 C 338.350 89.421,338.124 89.044,338.124 88.423 C 338.124 87.802,337.898 87.425,337.525 87.425 C 337.196 87.425,336.926 87.233,336.926 86.997 C 336.926 86.445,335.911 85.429,335.358 85.429 C 335.123 85.429,334.930 85.160,334.930 84.830 C 334.930 84.501,334.661 84.232,334.331 84.232 C 334.002 84.232,333.733 84.039,333.733 83.804 C 333.733 83.251,332.717 82.236,332.164 82.236 C 331.929 82.236,331.737 81.852,331.737 81.384 C 331.737 80.861,330.734 79.553,329.142 78.000 C 327.715 76.608,326.547 75.284,326.547 75.060 C 326.547 74.835,326.277 74.651,325.948 74.651 C 325.619 74.651,325.349 74.381,325.349 74.052 C 325.349 73.723,325.162 73.453,324.932 73.453 C 324.703 73.453,323.370 72.285,321.971 70.858 C 320.571 69.431,319.224 68.263,318.976 68.263 C 318.728 68.263,318.109 67.814,317.600 67.265 C 317.091 66.717,316.471 66.267,316.222 66.267 C 315.972 66.267,315.768 66.075,315.768 65.840 C 315.768 65.287,314.753 64.271,314.200 64.271 C 313.965 64.271,313.772 64.002,313.772 63.673 C 313.772 63.343,313.503 63.074,313.174 63.074 C 312.844 63.074,312.575 62.804,312.575 62.475 C 312.575 62.102,312.198 61.876,311.577 61.876 C 311.028 61.876,310.579 61.697,310.579 61.477 C 310.579 61.257,310.309 61.078,309.980 61.078 C 309.651 61.078,309.381 60.884,309.381 60.648 C 309.381 59.895,307.080 57.884,306.218 57.884 C 305.747 57.884,305.389 57.625,305.389 57.285 C 305.389 56.956,305.120 56.687,304.790 56.687 C 304.461 56.687,304.192 56.417,304.192 56.088 C 304.192 55.715,303.815 55.489,303.194 55.489 C 302.645 55.489,302.196 55.309,302.196 55.090 C 302.196 54.870,301.926 54.691,301.597 54.691 C 301.267 54.691,300.998 54.421,300.998 54.092 C 300.998 53.762,300.748 53.493,300.442 53.493 C 300.136 53.493,299.782 53.224,299.656 52.894 C 299.482 52.441,298.746 52.295,296.619 52.295 C 294.390 52.295,293.812 52.419,293.812 52.894 M369.860 151.135 C 370.299 151.463,370.629 151.858,370.592 152.013 C 370.556 152.168,370.600 152.370,370.692 152.462 C 370.783 152.553,370.858 152.260,370.858 151.810 C 370.858 151.294,370.526 150.908,369.960 150.765 C 369.079 150.543,369.077 150.550,369.860 151.135 M25.948 237.937 C 25.948 238.369,26.138 238.723,26.371 238.723 C 26.603 238.723,26.692 238.558,26.568 238.357 C 26.444 238.157,26.559 237.920,26.824 237.832 C 27.127 237.731,27.055 237.575,26.627 237.411 C 26.130 237.220,25.948 237.361,25.948 237.937 " stroke="none" fill="#04fcd4" fill-rule="evenodd"></path></g></svg>